<?xml version="1.0" encoding="UTF-8" standalone="no"?>
<!DOCTYPE svg PUBLIC "-//W3C//DTD SVG 1.1//EN"
 "http://www.w3.org/Graphics/SVG/1.1/DTD/svg11.dtd">
<!-- Generated by graphviz version 2.40.1 (0)
 -->
<!-- Title: %3 Pages: 1 -->
<svg width="506pt" height="548pt"
 viewBox="0.00 0.00 506.00 548.00" xmlns="http://www.w3.org/2000/svg" xmlns:xlink="http://www.w3.org/1999/xlink">
<g id="graph0" class="graph" transform="scale(1 1) rotate(0) translate(4 544)">
<title>%3</title>
<!-- 0 -->
<g id="node1" class="node">
<title>0</title>
<text text-anchor="middle" x="63" y="-518.3" font-family="Times,serif" font-size="14.00" fill="#000000">S</text>
</g>
<!-- 1 -->
<g id="node2" class="node">
<title>1</title>
<text text-anchor="middle" x="27" y="-446.3" font-family="Times,serif" font-size="14.00" fill="#000000">Obl</text>
</g>
<!-- 0&#45;&#45;1 -->
<g id="edge1" class="edge">
<title>0&#45;&#45;1</title>
<path fill="none" stroke="#000000" d="M53.9157,-503.8314C48.5,-493 41.6438,-479.2876 36.2066,-468.4133"/>
</g>
<!-- 2 -->
<g id="node3" class="node">
<title>2</title>
<text text-anchor="middle" x="99" y="-446.3" font-family="Times,serif" font-size="14.00" fill="#000000">S&#39;</text>
</g>
<!-- 0&#45;&#45;2 -->
<g id="edge2" class="edge">
<title>0&#45;&#45;2</title>
<path fill="none" stroke="#000000" d="M72.0843,-503.8314C77.5,-493 84.3562,-479.2876 89.7934,-468.4133"/>
</g>
<!-- 21 -->
<g id="node4" class="node">
<title>21</title>
<text text-anchor="middle" x="61" y="-374.3" font-family="Times,serif" font-size="14.00" fill="#000000">NPerg</text>
</g>
<!-- 2&#45;&#45;21 -->
<g id="edge3" class="edge">
<title>2&#45;&#45;21</title>
<path fill="none" stroke="#000000" d="M89.411,-431.8314C83.6945,-421 76.4573,-407.2876 70.7181,-396.4133"/>
</g>
<!-- 22 -->
<g id="node6" class="node">
<title>22</title>
<text text-anchor="middle" x="137" y="-374.3" font-family="Times,serif" font-size="14.00" fill="#000000">VP</text>
</g>
<!-- 2&#45;&#45;22 -->
<g id="edge5" class="edge">
<title>2&#45;&#45;22</title>
<path fill="none" stroke="#000000" d="M108.589,-431.8314C114.3055,-421 121.5427,-407.2876 127.2819,-396.4133"/>
</g>
<!-- 211 -->
<g id="node5" class="node">
<title>211</title>
<text text-anchor="middle" x="61" y="-302.3" font-family="Times,serif" font-size="14.00" fill="#000000">NP</text>
</g>
<!-- 21&#45;&#45;211 -->
<g id="edge4" class="edge">
<title>21&#45;&#45;211</title>
<path fill="none" stroke="#000000" d="M61,-359.8314C61,-349 61,-335.2876 61,-324.4133"/>
</g>
<!-- 221 -->
<g id="node7" class="node">
<title>221</title>
<text text-anchor="middle" x="137" y="-302.3" font-family="Times,serif" font-size="14.00" fill="#000000">NPdat</text>
</g>
<!-- 22&#45;&#45;221 -->
<g id="edge6" class="edge">
<title>22&#45;&#45;221</title>
<path fill="none" stroke="#000000" d="M137,-359.8314C137,-349 137,-335.2876 137,-324.4133"/>
</g>
<!-- 222 -->
<g id="node9" class="node">
<title>222</title>
<text text-anchor="middle" x="213" y="-302.3" font-family="Times,serif" font-size="14.00" fill="#000000">VP&#39;</text>
</g>
<!-- 22&#45;&#45;222 -->
<g id="edge8" class="edge">
<title>22&#45;&#45;222</title>
<path fill="none" stroke="#000000" d="M156.178,-359.8314C167.699,-348.9167 182.3082,-335.0764 193.8281,-324.1628"/>
</g>
<!-- 2211 -->
<g id="node8" class="node">
<title>2211</title>
<text text-anchor="middle" x="137" y="-230.3" font-family="Times,serif" font-size="14.00" fill="#000000">NP</text>
</g>
<!-- 221&#45;&#45;2211 -->
<g id="edge7" class="edge">
<title>221&#45;&#45;2211</title>
<path fill="none" stroke="#000000" d="M137,-287.8314C137,-277 137,-263.2876 137,-252.4133"/>
</g>
<!-- 2221 -->
<g id="node10" class="node">
<title>2221</title>
<text text-anchor="middle" x="213" y="-230.3" font-family="Times,serif" font-size="14.00" fill="#000000">NPabs</text>
</g>
<!-- 222&#45;&#45;2221 -->
<g id="edge9" class="edge">
<title>222&#45;&#45;2221</title>
<path fill="none" stroke="#000000" d="M213,-287.8314C213,-277 213,-263.2876 213,-252.4133"/>
</g>
<!-- 2222 -->
<g id="node16" class="node">
<title>2222</title>
<text text-anchor="middle" x="325" y="-230.3" font-family="Times,serif" font-size="14.00" fill="#000000">V&#39;</text>
</g>
<!-- 222&#45;&#45;2222 -->
<g id="edge15" class="edge">
<title>222&#45;&#45;2222</title>
<path fill="none" stroke="#000000" d="M240.1121,-288.5708C257.5918,-277.3339 280.2425,-262.7727 297.7494,-251.5182"/>
</g>
<!-- 22211 -->
<g id="node11" class="node">
<title>22211</title>
<text text-anchor="middle" x="177" y="-158.3" font-family="Times,serif" font-size="14.00" fill="#000000">NP</text>
</g>
<!-- 2221&#45;&#45;22211 -->
<g id="edge10" class="edge">
<title>2221&#45;&#45;22211</title>
<path fill="none" stroke="#000000" d="M203.9157,-215.8314C198.5,-205 191.6438,-191.2876 186.2066,-180.4133"/>
</g>
<!-- 222111 -->
<g id="node12" class="node">
<title>222111</title>
<text text-anchor="middle" x="141" y="-86.3" font-family="Times,serif" font-size="14.00" fill="#000000">S</text>
</g>
<!-- 22211&#45;&#45;222111 -->
<g id="edge11" class="edge">
<title>22211&#45;&#45;222111</title>
<path fill="none" stroke="#000000" d="M167.9157,-143.8314C162.5,-133 155.6438,-119.2876 150.2066,-108.4133"/>
</g>
<!-- 222112 -->
<g id="node13" class="node">
<title>222112</title>
<text text-anchor="middle" x="213" y="-86.3" font-family="Times,serif" font-size="14.00" fill="#000000">NP&#39;</text>
</g>
<!-- 22211&#45;&#45;222112 -->
<g id="edge12" class="edge">
<title>22211&#45;&#45;222112</title>
<path fill="none" stroke="#000000" d="M186.0843,-143.8314C191.5,-133 198.3562,-119.2876 203.7934,-108.4133"/>
</g>
<!-- 2221121 -->
<g id="node14" class="node">
<title>2221121</title>
<text text-anchor="middle" x="177" y="-14.3" font-family="Times,serif" font-size="14.00" fill="#000000">Adj</text>
</g>
<!-- 222112&#45;&#45;2221121 -->
<g id="edge13" class="edge">
<title>222112&#45;&#45;2221121</title>
<path fill="none" stroke="#000000" d="M203.9157,-71.8314C198.5,-61 191.6438,-47.2876 186.2066,-36.4133"/>
</g>
<!-- 2221122 -->
<g id="node15" class="node">
<title>2221122</title>
<text text-anchor="middle" x="249" y="-14.3" font-family="Times,serif" font-size="14.00" fill="#000000">N</text>
</g>
<!-- 222112&#45;&#45;2221122 -->
<g id="edge14" class="edge">
<title>222112&#45;&#45;2221122</title>
<path fill="none" stroke="#000000" d="M222.0843,-71.8314C227.5,-61 234.3562,-47.2876 239.7934,-36.4133"/>
</g>
<!-- 22221 -->
<g id="node17" class="node">
<title>22221</title>
<text text-anchor="middle" x="250" y="-158.3" font-family="Times,serif" font-size="14.00" fill="#000000">Mood</text>
</g>
<!-- 2222&#45;&#45;22221 -->
<g id="edge16" class="edge">
<title>2222&#45;&#45;22221</title>
<path fill="none" stroke="#000000" d="M306.0743,-215.8314C294.7049,-204.9167 280.288,-191.0764 268.9196,-180.1628"/>
</g>
<!-- 22222 -->
<g id="node18" class="node">
<title>22222</title>
<text text-anchor="middle" x="325" y="-158.3" font-family="Times,serif" font-size="14.00" fill="#000000">Tense</text>
</g>
<!-- 2222&#45;&#45;22222 -->
<g id="edge17" class="edge">
<title>2222&#45;&#45;22222</title>
<path fill="none" stroke="#000000" d="M325,-215.8314C325,-205 325,-191.2876 325,-180.4133"/>
</g>
<!-- 22223 -->
<g id="node19" class="node">
<title>22223</title>
<text text-anchor="middle" x="399" y="-158.3" font-family="Times,serif" font-size="14.00" fill="#000000">V</text>
</g>
<!-- 2222&#45;&#45;22223 -->
<g id="edge18" class="edge">
<title>2222&#45;&#45;22223</title>
<path fill="none" stroke="#000000" d="M343.6733,-215.8314C354.8912,-204.9167 369.1159,-191.0764 380.3326,-180.1628"/>
</g>
<!-- 22224 -->
<g id="node20" class="node">
<title>22224</title>
<text text-anchor="middle" x="471" y="-158.3" font-family="Times,serif" font-size="14.00" fill="#000000">Neg</text>
</g>
<!-- 2222&#45;&#45;22224 -->
<g id="edge19" class="edge">
<title>2222&#45;&#45;22224</title>
<path fill="none" stroke="#000000" d="M352.1503,-220.74C374.4301,-209.8423 406.7869,-193.9781 435,-180 437.8802,-178.573 440.8877,-177.0777 443.8838,-175.5846"/>
</g>
</g>
</svg>
