<?xml version="1.0" encoding="UTF-8" standalone="no"?>
<!DOCTYPE svg PUBLIC "-//W3C//DTD SVG 1.1//EN"
 "http://www.w3.org/Graphics/SVG/1.1/DTD/svg11.dtd">
<!-- Generated by graphviz version 2.40.1 (0)
 -->
<!-- Title: %3 Pages: 1 -->
<svg width="1879pt" height="548pt"
 viewBox="0.00 0.00 1878.50 548.00" xmlns="http://www.w3.org/2000/svg" xmlns:xlink="http://www.w3.org/1999/xlink">
<g id="graph0" class="graph" transform="scale(1 1) rotate(0) translate(4 544)">
<title>%3</title>
<!-- 0 -->
<g id="node1" class="node">
<title>0</title>
<text text-anchor="middle" x="479" y="-518.3" font-family="Times,serif" font-size="14.00" fill="#000000">consonant</text>
</g>
<!-- 1 -->
<g id="node2" class="node">
<title>1</title>
<text text-anchor="middle" x="358" y="-446.3" font-family="Times,serif" font-size="14.00" fill="#000000">[son]</text>
</g>
<!-- 0&#45;&#45;1 -->
<g id="edge1" class="edge">
<title>0&#45;&#45;1</title>
<path fill="none" stroke="#000000" d="M448.4666,-503.8314C429.0037,-492.2502 404.0054,-477.3751 385.2207,-466.1975"/>
</g>
<!-- 2 -->
<g id="node19" class="node">
<title>2</title>
<text text-anchor="middle" x="739" y="-446.3" font-family="Times,serif" font-size="14.00" fill="#000000">{son}</text>
</g>
<!-- 0&#45;&#45;2 -->
<g id="edge18" class="edge">
<title>0&#45;&#45;2</title>
<path fill="none" stroke="#000000" d="M523.6956,-509.6228C576.8355,-494.9071 664.0229,-470.7629 709.4259,-458.1898"/>
</g>
<!-- 11 -->
<g id="node3" class="node">
<title>11</title>
<text text-anchor="middle" x="178" y="-374.3" font-family="Times,serif" font-size="14.00" fill="#000000">[cor]</text>
</g>
<!-- 1&#45;&#45;11 -->
<g id="edge2" class="edge">
<title>1&#45;&#45;11</title>
<path fill="none" stroke="#000000" d="M330.6619,-439.0647C296.6333,-425.4533 238.8788,-402.3515 205.0056,-388.8022"/>
</g>
<!-- 12 -->
<g id="node11" class="node">
<title>12</title>
<text text-anchor="middle" x="358" y="-374.3" font-family="Times,serif" font-size="14.00" fill="#000000">{cor}</text>
</g>
<!-- 1&#45;&#45;12 -->
<g id="edge10" class="edge">
<title>1&#45;&#45;12</title>
<path fill="none" stroke="#000000" d="M358,-431.8314C358,-421 358,-407.2876 358,-396.4133"/>
</g>
<!-- 111 -->
<g id="node4" class="node">
<title>111</title>
<text text-anchor="middle" x="98" y="-302.3" font-family="Times,serif" font-size="14.00" fill="#000000">[cont]</text>
</g>
<!-- 11&#45;&#45;111 -->
<g id="edge3" class="edge">
<title>11&#45;&#45;111</title>
<path fill="none" stroke="#000000" d="M157.8126,-359.8314C145.6852,-348.9167 130.3072,-335.0764 118.1809,-324.1628"/>
</g>
<!-- 112 -->
<g id="node9" class="node">
<title>112</title>
<text text-anchor="middle" x="178" y="-302.3" font-family="Times,serif" font-size="14.00" fill="#000000">{cont}</text>
</g>
<!-- 11&#45;&#45;112 -->
<g id="edge8" class="edge">
<title>11&#45;&#45;112</title>
<path fill="none" stroke="#000000" d="M178,-359.8314C178,-349 178,-335.2876 178,-324.4133"/>
</g>
<!-- 1111 -->
<g id="node5" class="node">
<title>1111</title>
<text text-anchor="middle" x="27" y="-230.3" font-family="Times,serif" font-size="14.00" fill="#000000">[SG]</text>
</g>
<!-- 111&#45;&#45;1111 -->
<g id="edge4" class="edge">
<title>111&#45;&#45;1111</title>
<path fill="none" stroke="#000000" d="M80.0837,-287.8314C69.4028,-277 55.8808,-263.2876 45.1575,-252.4133"/>
</g>
<!-- 1112 -->
<g id="node7" class="node">
<title>1112</title>
<text text-anchor="middle" x="100" y="-230.3" font-family="Times,serif" font-size="14.00" fill="#000000">{SG}</text>
</g>
<!-- 111&#45;&#45;1112 -->
<g id="edge6" class="edge">
<title>111&#45;&#45;1112</title>
<path fill="none" stroke="#000000" d="M98.5047,-287.8314C98.8056,-277 99.1865,-263.2876 99.4885,-252.4133"/>
</g>
<!-- 11111 -->
<g id="node6" class="node">
<title>11111</title>
<text text-anchor="middle" x="27" y="-158.3" font-family="Times,serif" font-size="14.00" fill="#000000">ɬ</text>
</g>
<!-- 1111&#45;&#45;11111 -->
<g id="edge5" class="edge">
<title>1111&#45;&#45;11111</title>
<path fill="none" stroke="#000000" d="M27,-215.8314C27,-205 27,-191.2876 27,-180.4133"/>
</g>
<!-- 11121 -->
<g id="node8" class="node">
<title>11121</title>
<text text-anchor="middle" x="100" y="-158.3" font-family="Times,serif" font-size="14.00" fill="#000000">l</text>
</g>
<!-- 1112&#45;&#45;11121 -->
<g id="edge7" class="edge">
<title>1112&#45;&#45;11121</title>
<path fill="none" stroke="#000000" d="M100,-215.8314C100,-205 100,-191.2876 100,-180.4133"/>
</g>
<!-- 1121 -->
<g id="node10" class="node">
<title>1121</title>
<text text-anchor="middle" x="176" y="-230.3" font-family="Times,serif" font-size="14.00" fill="#000000">n</text>
</g>
<!-- 112&#45;&#45;1121 -->
<g id="edge9" class="edge">
<title>112&#45;&#45;1121</title>
<path fill="none" stroke="#000000" d="M177.4953,-287.8314C177.1944,-277 176.8135,-263.2876 176.5115,-252.4133"/>
</g>
<!-- 121 -->
<g id="node12" class="node">
<title>121</title>
<text text-anchor="middle" x="318" y="-302.3" font-family="Times,serif" font-size="14.00" fill="#000000">[cont]</text>
</g>
<!-- 12&#45;&#45;121 -->
<g id="edge11" class="edge">
<title>12&#45;&#45;121</title>
<path fill="none" stroke="#000000" d="M347.9063,-359.8314C341.8889,-349 334.2709,-335.2876 328.2296,-324.4133"/>
</g>
<!-- 122 -->
<g id="node17" class="node">
<title>122</title>
<text text-anchor="middle" x="398" y="-302.3" font-family="Times,serif" font-size="14.00" fill="#000000">{cont}</text>
</g>
<!-- 12&#45;&#45;122 -->
<g id="edge16" class="edge">
<title>12&#45;&#45;122</title>
<path fill="none" stroke="#000000" d="M368.0937,-359.8314C374.1111,-349 381.7291,-335.2876 387.7704,-324.4133"/>
</g>
<!-- 1211 -->
<g id="node13" class="node">
<title>1211</title>
<text text-anchor="middle" x="248" y="-230.3" font-family="Times,serif" font-size="14.00" fill="#000000">[SG]</text>
</g>
<!-- 121&#45;&#45;1211 -->
<g id="edge12" class="edge">
<title>121&#45;&#45;1211</title>
<path fill="none" stroke="#000000" d="M300.336,-287.8314C289.8056,-277 276.474,-263.2876 265.9018,-252.4133"/>
</g>
<!-- 1212 -->
<g id="node15" class="node">
<title>1212</title>
<text text-anchor="middle" x="321" y="-230.3" font-family="Times,serif" font-size="14.00" fill="#000000">{SG}</text>
</g>
<!-- 121&#45;&#45;1212 -->
<g id="edge14" class="edge">
<title>121&#45;&#45;1212</title>
<path fill="none" stroke="#000000" d="M318.757,-287.8314C319.2083,-277 319.7797,-263.2876 320.2328,-252.4133"/>
</g>
<!-- 12111 -->
<g id="node14" class="node">
<title>12111</title>
<text text-anchor="middle" x="248" y="-158.3" font-family="Times,serif" font-size="14.00" fill="#000000">ʍ</text>
</g>
<!-- 1211&#45;&#45;12111 -->
<g id="edge13" class="edge">
<title>1211&#45;&#45;12111</title>
<path fill="none" stroke="#000000" d="M248,-215.8314C248,-205 248,-191.2876 248,-180.4133"/>
</g>
<!-- 12121 -->
<g id="node16" class="node">
<title>12121</title>
<text text-anchor="middle" x="320" y="-158.3" font-family="Times,serif" font-size="14.00" fill="#000000">w</text>
</g>
<!-- 1212&#45;&#45;12121 -->
<g id="edge15" class="edge">
<title>1212&#45;&#45;12121</title>
<path fill="none" stroke="#000000" d="M320.7477,-215.8314C320.5972,-205 320.4068,-191.2876 320.2557,-180.4133"/>
</g>
<!-- 1221 -->
<g id="node18" class="node">
<title>1221</title>
<text text-anchor="middle" x="398" y="-230.3" font-family="Times,serif" font-size="14.00" fill="#000000">m</text>
</g>
<!-- 122&#45;&#45;1221 -->
<g id="edge17" class="edge">
<title>122&#45;&#45;1221</title>
<path fill="none" stroke="#000000" d="M398,-287.8314C398,-277 398,-263.2876 398,-252.4133"/>
</g>
<!-- 21 -->
<g id="node20" class="node">
<title>21</title>
<text text-anchor="middle" x="739" y="-374.3" font-family="Times,serif" font-size="14.00" fill="#000000">[cor]</text>
</g>
<!-- 2&#45;&#45;21 -->
<g id="edge19" class="edge">
<title>2&#45;&#45;21</title>
<path fill="none" stroke="#000000" d="M739,-431.8314C739,-421 739,-407.2876 739,-396.4133"/>
</g>
<!-- 22 -->
<g id="node55" class="node">
<title>22</title>
<text text-anchor="middle" x="1461" y="-374.3" font-family="Times,serif" font-size="14.00" fill="#000000">{cor}</text>
</g>
<!-- 2&#45;&#45;22 -->
<g id="edge54" class="edge">
<title>2&#45;&#45;22</title>
<path fill="none" stroke="#000000" d="M768.6493,-447.0433C885.9361,-435.3471 1316.6974,-392.3903 1432.2914,-380.8629"/>
</g>
<!-- 211 -->
<g id="node21" class="node">
<title>211</title>
<text text-anchor="middle" x="641" y="-302.3" font-family="Times,serif" font-size="14.00" fill="#000000">[dor]</text>
</g>
<!-- 21&#45;&#45;211 -->
<g id="edge20" class="edge">
<title>21&#45;&#45;211</title>
<path fill="none" stroke="#000000" d="M714.2705,-359.8314C699.4144,-348.9167 680.5763,-335.0764 665.7216,-324.1628"/>
</g>
<!-- 212 -->
<g id="node38" class="node">
<title>212</title>
<text text-anchor="middle" x="887" y="-302.3" font-family="Times,serif" font-size="14.00" fill="#000000">{dor}</text>
</g>
<!-- 21&#45;&#45;212 -->
<g id="edge37" class="edge">
<title>21&#45;&#45;212</title>
<path fill="none" stroke="#000000" d="M766.1455,-364.7941C792.0149,-352.2089 830.8625,-333.3102 857.4889,-320.3568"/>
</g>
<!-- 2111 -->
<g id="node22" class="node">
<title>2111</title>
<text text-anchor="middle" x="483" y="-230.3" font-family="Times,serif" font-size="14.00" fill="#000000">[cont]</text>
</g>
<!-- 211&#45;&#45;2111 -->
<g id="edge21" class="edge">
<title>211&#45;&#45;2111</title>
<path fill="none" stroke="#000000" d="M613.8388,-293.6228C585.5165,-280.7164 541.2789,-260.5575 512.2149,-247.3131"/>
</g>
<!-- 2112 -->
<g id="node27" class="node">
<title>2112</title>
<text text-anchor="middle" x="641" y="-230.3" font-family="Times,serif" font-size="14.00" fill="#000000">{cont}</text>
</g>
<!-- 211&#45;&#45;2112 -->
<g id="edge26" class="edge">
<title>211&#45;&#45;2112</title>
<path fill="none" stroke="#000000" d="M641,-287.8314C641,-277 641,-263.2876 641,-252.4133"/>
</g>
<!-- 21111 -->
<g id="node23" class="node">
<title>21111</title>
<text text-anchor="middle" x="397" y="-158.3" font-family="Times,serif" font-size="14.00" fill="#000000">[voice]</text>
</g>
<!-- 2111&#45;&#45;21111 -->
<g id="edge22" class="edge">
<title>2111&#45;&#45;21111</title>
<path fill="none" stroke="#000000" d="M461.2986,-215.8314C448.2616,-204.9167 431.7302,-191.0764 418.6945,-180.1628"/>
</g>
<!-- 21112 -->
<g id="node25" class="node">
<title>21112</title>
<text text-anchor="middle" x="483" y="-158.3" font-family="Times,serif" font-size="14.00" fill="#000000">{voice}</text>
</g>
<!-- 2111&#45;&#45;21112 -->
<g id="edge24" class="edge">
<title>2111&#45;&#45;21112</title>
<path fill="none" stroke="#000000" d="M483,-215.8314C483,-205 483,-191.2876 483,-180.4133"/>
</g>
<!-- 211111 -->
<g id="node24" class="node">
<title>211111</title>
<text text-anchor="middle" x="363" y="-86.3" font-family="Times,serif" font-size="14.00" fill="#000000">ʝ</text>
</g>
<!-- 21111&#45;&#45;211111 -->
<g id="edge23" class="edge">
<title>21111&#45;&#45;211111</title>
<path fill="none" stroke="#000000" d="M388.4204,-143.8314C383.3056,-133 376.8302,-119.2876 371.6952,-108.4133"/>
</g>
<!-- 211121 -->
<g id="node26" class="node">
<title>211121</title>
<text text-anchor="middle" x="435" y="-86.3" font-family="Times,serif" font-size="14.00" fill="#000000">ç</text>
</g>
<!-- 21112&#45;&#45;211121 -->
<g id="edge25" class="edge">
<title>21112&#45;&#45;211121</title>
<path fill="none" stroke="#000000" d="M470.8876,-143.8314C463.6667,-133 454.5251,-119.2876 447.2755,-108.4133"/>
</g>
<!-- 21121 -->
<g id="node28" class="node">
<title>21121</title>
<text text-anchor="middle" x="598" y="-158.3" font-family="Times,serif" font-size="14.00" fill="#000000">[SG]</text>
</g>
<!-- 2112&#45;&#45;21121 -->
<g id="edge27" class="edge">
<title>2112&#45;&#45;21121</title>
<path fill="none" stroke="#000000" d="M630.1493,-215.8314C623.6806,-205 615.4912,-191.2876 608.9968,-180.4133"/>
</g>
<!-- 21122 -->
<g id="node33" class="node">
<title>21122</title>
<text text-anchor="middle" x="684" y="-158.3" font-family="Times,serif" font-size="14.00" fill="#000000">{SG}</text>
</g>
<!-- 2112&#45;&#45;21122 -->
<g id="edge32" class="edge">
<title>2112&#45;&#45;21122</title>
<path fill="none" stroke="#000000" d="M651.8507,-215.8314C658.3194,-205 666.5088,-191.2876 673.0032,-180.4133"/>
</g>
<!-- 211211 -->
<g id="node29" class="node">
<title>211211</title>
<text text-anchor="middle" x="512" y="-86.3" font-family="Times,serif" font-size="14.00" fill="#000000">[voice]</text>
</g>
<!-- 21121&#45;&#45;211211 -->
<g id="edge28" class="edge">
<title>21121&#45;&#45;211211</title>
<path fill="none" stroke="#000000" d="M576.2986,-143.8314C563.2616,-132.9167 546.7302,-119.0764 533.6945,-108.1628"/>
</g>
<!-- 211212 -->
<g id="node31" class="node">
<title>211212</title>
<text text-anchor="middle" x="598" y="-86.3" font-family="Times,serif" font-size="14.00" fill="#000000">{voice}</text>
</g>
<!-- 21121&#45;&#45;211212 -->
<g id="edge30" class="edge">
<title>21121&#45;&#45;211212</title>
<path fill="none" stroke="#000000" d="M598,-143.8314C598,-133 598,-119.2876 598,-108.4133"/>
</g>
<!-- 2112111 -->
<g id="node30" class="node">
<title>2112111</title>
<text text-anchor="middle" x="512" y="-14.3" font-family="Times,serif" font-size="14.00" fill="#000000">d͡ʒʰ</text>
</g>
<!-- 211211&#45;&#45;2112111 -->
<g id="edge29" class="edge">
<title>211211&#45;&#45;2112111</title>
<path fill="none" stroke="#000000" d="M512,-71.8314C512,-61 512,-47.2876 512,-36.4133"/>
</g>
<!-- 2112121 -->
<g id="node32" class="node">
<title>2112121</title>
<text text-anchor="middle" x="598" y="-14.3" font-family="Times,serif" font-size="14.00" fill="#000000">t͡ʃʰ</text>
</g>
<!-- 211212&#45;&#45;2112121 -->
<g id="edge31" class="edge">
<title>211212&#45;&#45;2112121</title>
<path fill="none" stroke="#000000" d="M598,-71.8314C598,-61 598,-47.2876 598,-36.4133"/>
</g>
<!-- 211221 -->
<g id="node34" class="node">
<title>211221</title>
<text text-anchor="middle" x="684" y="-86.3" font-family="Times,serif" font-size="14.00" fill="#000000">[voice]</text>
</g>
<!-- 21122&#45;&#45;211221 -->
<g id="edge33" class="edge">
<title>21122&#45;&#45;211221</title>
<path fill="none" stroke="#000000" d="M684,-143.8314C684,-133 684,-119.2876 684,-108.4133"/>
</g>
<!-- 211222 -->
<g id="node36" class="node">
<title>211222</title>
<text text-anchor="middle" x="770" y="-86.3" font-family="Times,serif" font-size="14.00" fill="#000000">{voice}</text>
</g>
<!-- 21122&#45;&#45;211222 -->
<g id="edge35" class="edge">
<title>21122&#45;&#45;211222</title>
<path fill="none" stroke="#000000" d="M705.7014,-143.8314C718.7384,-132.9167 735.2698,-119.0764 748.3055,-108.1628"/>
</g>
<!-- 2112211 -->
<g id="node35" class="node">
<title>2112211</title>
<text text-anchor="middle" x="684" y="-14.3" font-family="Times,serif" font-size="14.00" fill="#000000">d͡ʒ</text>
</g>
<!-- 211221&#45;&#45;2112211 -->
<g id="edge34" class="edge">
<title>211221&#45;&#45;2112211</title>
<path fill="none" stroke="#000000" d="M684,-71.8314C684,-61 684,-47.2876 684,-36.4133"/>
</g>
<!-- 2112221 -->
<g id="node37" class="node">
<title>2112221</title>
<text text-anchor="middle" x="770" y="-14.3" font-family="Times,serif" font-size="14.00" fill="#000000">t͡ʃ</text>
</g>
<!-- 211222&#45;&#45;2112221 -->
<g id="edge36" class="edge">
<title>211222&#45;&#45;2112221</title>
<path fill="none" stroke="#000000" d="M770,-71.8314C770,-61 770,-47.2876 770,-36.4133"/>
</g>
<!-- 2121 -->
<g id="node39" class="node">
<title>2121</title>
<text text-anchor="middle" x="887" y="-230.3" font-family="Times,serif" font-size="14.00" fill="#000000">[cont]</text>
</g>
<!-- 212&#45;&#45;2121 -->
<g id="edge38" class="edge">
<title>212&#45;&#45;2121</title>
<path fill="none" stroke="#000000" d="M887,-287.8314C887,-277 887,-263.2876 887,-252.4133"/>
</g>
<!-- 2122 -->
<g id="node44" class="node">
<title>2122</title>
<text text-anchor="middle" x="1045" y="-230.3" font-family="Times,serif" font-size="14.00" fill="#000000">{cont}</text>
</g>
<!-- 212&#45;&#45;2122 -->
<g id="edge43" class="edge">
<title>212&#45;&#45;2122</title>
<path fill="none" stroke="#000000" d="M916.7186,-292.4574C943.9832,-280.033 984.2868,-261.6668 1012.4195,-248.8468"/>
</g>
<!-- 21211 -->
<g id="node40" class="node">
<title>21211</title>
<text text-anchor="middle" x="844" y="-158.3" font-family="Times,serif" font-size="14.00" fill="#000000">[voice]</text>
</g>
<!-- 2121&#45;&#45;21211 -->
<g id="edge39" class="edge">
<title>2121&#45;&#45;21211</title>
<path fill="none" stroke="#000000" d="M876.1493,-215.8314C869.6806,-205 861.4912,-191.2876 854.9968,-180.4133"/>
</g>
<!-- 21212 -->
<g id="node42" class="node">
<title>21212</title>
<text text-anchor="middle" x="930" y="-158.3" font-family="Times,serif" font-size="14.00" fill="#000000">{voice}</text>
</g>
<!-- 2121&#45;&#45;21212 -->
<g id="edge41" class="edge">
<title>2121&#45;&#45;21212</title>
<path fill="none" stroke="#000000" d="M897.8507,-215.8314C904.3194,-205 912.5088,-191.2876 919.0032,-180.4133"/>
</g>
<!-- 212111 -->
<g id="node41" class="node">
<title>212111</title>
<text text-anchor="middle" x="851" y="-86.3" font-family="Times,serif" font-size="14.00" fill="#000000">z</text>
</g>
<!-- 21211&#45;&#45;212111 -->
<g id="edge40" class="edge">
<title>21211&#45;&#45;212111</title>
<path fill="none" stroke="#000000" d="M845.7664,-143.8314C846.8194,-133 848.1526,-119.2876 849.2098,-108.4133"/>
</g>
<!-- 212121 -->
<g id="node43" class="node">
<title>212121</title>
<text text-anchor="middle" x="923" y="-86.3" font-family="Times,serif" font-size="14.00" fill="#000000">s</text>
</g>
<!-- 21212&#45;&#45;212121 -->
<g id="edge42" class="edge">
<title>21212&#45;&#45;212121</title>
<path fill="none" stroke="#000000" d="M928.2336,-143.8314C927.1806,-133 925.8474,-119.2876 924.7902,-108.4133"/>
</g>
<!-- 21221 -->
<g id="node45" class="node">
<title>21221</title>
<text text-anchor="middle" x="1045" y="-158.3" font-family="Times,serif" font-size="14.00" fill="#000000">[SG]</text>
</g>
<!-- 2122&#45;&#45;21221 -->
<g id="edge44" class="edge">
<title>2122&#45;&#45;21221</title>
<path fill="none" stroke="#000000" d="M1045,-215.8314C1045,-205 1045,-191.2876 1045,-180.4133"/>
</g>
<!-- 21222 -->
<g id="node50" class="node">
<title>21222</title>
<text text-anchor="middle" x="1172" y="-158.3" font-family="Times,serif" font-size="14.00" fill="#000000">{SG}</text>
</g>
<!-- 2122&#45;&#45;21222 -->
<g id="edge49" class="edge">
<title>2122&#45;&#45;21222</title>
<path fill="none" stroke="#000000" d="M1077.0475,-215.8314C1097.6224,-204.1668 1124.0912,-189.1609 1143.854,-177.9568"/>
</g>
<!-- 212211 -->
<g id="node46" class="node">
<title>212211</title>
<text text-anchor="middle" x="1000" y="-86.3" font-family="Times,serif" font-size="14.00" fill="#000000">[voice]</text>
</g>
<!-- 21221&#45;&#45;212211 -->
<g id="edge45" class="edge">
<title>21221&#45;&#45;212211</title>
<path fill="none" stroke="#000000" d="M1033.6446,-143.8314C1026.875,-133 1018.3047,-119.2876 1011.5083,-108.4133"/>
</g>
<!-- 212212 -->
<g id="node48" class="node">
<title>212212</title>
<text text-anchor="middle" x="1086" y="-86.3" font-family="Times,serif" font-size="14.00" fill="#000000">{voice}</text>
</g>
<!-- 21221&#45;&#45;212212 -->
<g id="edge47" class="edge">
<title>21221&#45;&#45;212212</title>
<path fill="none" stroke="#000000" d="M1055.346,-143.8314C1061.5139,-133 1069.3224,-119.2876 1075.5147,-108.4133"/>
</g>
<!-- 2122111 -->
<g id="node47" class="node">
<title>2122111</title>
<text text-anchor="middle" x="1000" y="-14.3" font-family="Times,serif" font-size="14.00" fill="#000000">dʰ</text>
</g>
<!-- 212211&#45;&#45;2122111 -->
<g id="edge46" class="edge">
<title>212211&#45;&#45;2122111</title>
<path fill="none" stroke="#000000" d="M1000,-71.8314C1000,-61 1000,-47.2876 1000,-36.4133"/>
</g>
<!-- 2122121 -->
<g id="node49" class="node">
<title>2122121</title>
<text text-anchor="middle" x="1086" y="-14.3" font-family="Times,serif" font-size="14.00" fill="#000000">tʰ</text>
</g>
<!-- 212212&#45;&#45;2122121 -->
<g id="edge48" class="edge">
<title>212212&#45;&#45;2122121</title>
<path fill="none" stroke="#000000" d="M1086,-71.8314C1086,-61 1086,-47.2876 1086,-36.4133"/>
</g>
<!-- 212221 -->
<g id="node51" class="node">
<title>212221</title>
<text text-anchor="middle" x="1172" y="-86.3" font-family="Times,serif" font-size="14.00" fill="#000000">[voice]</text>
</g>
<!-- 21222&#45;&#45;212221 -->
<g id="edge50" class="edge">
<title>21222&#45;&#45;212221</title>
<path fill="none" stroke="#000000" d="M1172,-143.8314C1172,-133 1172,-119.2876 1172,-108.4133"/>
</g>
<!-- 212222 -->
<g id="node53" class="node">
<title>212222</title>
<text text-anchor="middle" x="1258" y="-86.3" font-family="Times,serif" font-size="14.00" fill="#000000">{voice}</text>
</g>
<!-- 21222&#45;&#45;212222 -->
<g id="edge52" class="edge">
<title>21222&#45;&#45;212222</title>
<path fill="none" stroke="#000000" d="M1193.7014,-143.8314C1206.7384,-132.9167 1223.2698,-119.0764 1236.3055,-108.1628"/>
</g>
<!-- 2122211 -->
<g id="node52" class="node">
<title>2122211</title>
<text text-anchor="middle" x="1172" y="-14.3" font-family="Times,serif" font-size="14.00" fill="#000000">d</text>
</g>
<!-- 212221&#45;&#45;2122211 -->
<g id="edge51" class="edge">
<title>212221&#45;&#45;2122211</title>
<path fill="none" stroke="#000000" d="M1172,-71.8314C1172,-61 1172,-47.2876 1172,-36.4133"/>
</g>
<!-- 2122221 -->
<g id="node54" class="node">
<title>2122221</title>
<text text-anchor="middle" x="1258" y="-14.3" font-family="Times,serif" font-size="14.00" fill="#000000">t</text>
</g>
<!-- 212222&#45;&#45;2122221 -->
<g id="edge53" class="edge">
<title>212222&#45;&#45;2122221</title>
<path fill="none" stroke="#000000" d="M1258,-71.8314C1258,-61 1258,-47.2876 1258,-36.4133"/>
</g>
<!-- 221 -->
<g id="node56" class="node">
<title>221</title>
<text text-anchor="middle" x="1461" y="-302.3" font-family="Times,serif" font-size="14.00" fill="#000000">[dor]</text>
</g>
<!-- 22&#45;&#45;221 -->
<g id="edge55" class="edge">
<title>22&#45;&#45;221</title>
<path fill="none" stroke="#000000" d="M1461,-359.8314C1461,-349 1461,-335.2876 1461,-324.4133"/>
</g>
<!-- 222 -->
<g id="node67" class="node">
<title>222</title>
<text text-anchor="middle" x="1670" y="-302.3" font-family="Times,serif" font-size="14.00" fill="#000000">{dor}</text>
</g>
<!-- 22&#45;&#45;222 -->
<g id="edge66" class="edge">
<title>22&#45;&#45;222</title>
<path fill="none" stroke="#000000" d="M1489.6223,-368.1397C1529.1983,-354.5058 1600.2763,-330.0196 1640.376,-316.2054"/>
</g>
<!-- 2211 -->
<g id="node57" class="node">
<title>2211</title>
<text text-anchor="middle" x="1418" y="-230.3" font-family="Times,serif" font-size="14.00" fill="#000000">[cont]</text>
</g>
<!-- 221&#45;&#45;2211 -->
<g id="edge56" class="edge">
<title>221&#45;&#45;2211</title>
<path fill="none" stroke="#000000" d="M1450.1493,-287.8314C1443.6806,-277 1435.4912,-263.2876 1428.9968,-252.4133"/>
</g>
<!-- 2212 -->
<g id="node62" class="node">
<title>2212</title>
<text text-anchor="middle" x="1504" y="-230.3" font-family="Times,serif" font-size="14.00" fill="#000000">{cont}</text>
</g>
<!-- 221&#45;&#45;2212 -->
<g id="edge61" class="edge">
<title>221&#45;&#45;2212</title>
<path fill="none" stroke="#000000" d="M1471.8507,-287.8314C1478.3194,-277 1486.5088,-263.2876 1493.0032,-252.4133"/>
</g>
<!-- 22111 -->
<g id="node58" class="node">
<title>22111</title>
<text text-anchor="middle" x="1332" y="-158.3" font-family="Times,serif" font-size="14.00" fill="#000000">[voice]</text>
</g>
<!-- 2211&#45;&#45;22111 -->
<g id="edge57" class="edge">
<title>2211&#45;&#45;22111</title>
<path fill="none" stroke="#000000" d="M1396.2986,-215.8314C1383.2616,-204.9167 1366.7302,-191.0764 1353.6945,-180.1628"/>
</g>
<!-- 22112 -->
<g id="node60" class="node">
<title>22112</title>
<text text-anchor="middle" x="1418" y="-158.3" font-family="Times,serif" font-size="14.00" fill="#000000">{voice}</text>
</g>
<!-- 2211&#45;&#45;22112 -->
<g id="edge59" class="edge">
<title>2211&#45;&#45;22112</title>
<path fill="none" stroke="#000000" d="M1418,-215.8314C1418,-205 1418,-191.2876 1418,-180.4133"/>
</g>
<!-- 221111 -->
<g id="node59" class="node">
<title>221111</title>
<text text-anchor="middle" x="1339" y="-86.3" font-family="Times,serif" font-size="14.00" fill="#000000">ɣ</text>
</g>
<!-- 22111&#45;&#45;221111 -->
<g id="edge58" class="edge">
<title>22111&#45;&#45;221111</title>
<path fill="none" stroke="#000000" d="M1333.7664,-143.8314C1334.8194,-133 1336.1526,-119.2876 1337.2098,-108.4133"/>
</g>
<!-- 221121 -->
<g id="node61" class="node">
<title>221121</title>
<text text-anchor="middle" x="1418" y="-86.3" font-family="Times,serif" font-size="14.00" fill="#000000">x</text>
</g>
<!-- 22112&#45;&#45;221121 -->
<g id="edge60" class="edge">
<title>22112&#45;&#45;221121</title>
<path fill="none" stroke="#000000" d="M1418,-143.8314C1418,-133 1418,-119.2876 1418,-108.4133"/>
</g>
<!-- 22121 -->
<g id="node63" class="node">
<title>22121</title>
<text text-anchor="middle" x="1504" y="-158.3" font-family="Times,serif" font-size="14.00" fill="#000000">[voice]</text>
</g>
<!-- 2212&#45;&#45;22121 -->
<g id="edge62" class="edge">
<title>2212&#45;&#45;22121</title>
<path fill="none" stroke="#000000" d="M1504,-215.8314C1504,-205 1504,-191.2876 1504,-180.4133"/>
</g>
<!-- 22122 -->
<g id="node65" class="node">
<title>22122</title>
<text text-anchor="middle" x="1590" y="-158.3" font-family="Times,serif" font-size="14.00" fill="#000000">{voice}</text>
</g>
<!-- 2212&#45;&#45;22122 -->
<g id="edge64" class="edge">
<title>2212&#45;&#45;22122</title>
<path fill="none" stroke="#000000" d="M1525.7014,-215.8314C1538.7384,-204.9167 1555.2698,-191.0764 1568.3055,-180.1628"/>
</g>
<!-- 221211 -->
<g id="node64" class="node">
<title>221211</title>
<text text-anchor="middle" x="1504" y="-86.3" font-family="Times,serif" font-size="14.00" fill="#000000">g</text>
</g>
<!-- 22121&#45;&#45;221211 -->
<g id="edge63" class="edge">
<title>22121&#45;&#45;221211</title>
<path fill="none" stroke="#000000" d="M1504,-143.8314C1504,-133 1504,-119.2876 1504,-108.4133"/>
</g>
<!-- 221221 -->
<g id="node66" class="node">
<title>221221</title>
<text text-anchor="middle" x="1590" y="-86.3" font-family="Times,serif" font-size="14.00" fill="#000000">k</text>
</g>
<!-- 22122&#45;&#45;221221 -->
<g id="edge65" class="edge">
<title>22122&#45;&#45;221221</title>
<path fill="none" stroke="#000000" d="M1590,-143.8314C1590,-133 1590,-119.2876 1590,-108.4133"/>
</g>
<!-- 2221 -->
<g id="node68" class="node">
<title>2221</title>
<text text-anchor="middle" x="1670" y="-230.3" font-family="Times,serif" font-size="14.00" fill="#000000">[cont]</text>
</g>
<!-- 222&#45;&#45;2221 -->
<g id="edge67" class="edge">
<title>222&#45;&#45;2221</title>
<path fill="none" stroke="#000000" d="M1670,-287.8314C1670,-277 1670,-263.2876 1670,-252.4133"/>
</g>
<!-- 2222 -->
<g id="node70" class="node">
<title>2222</title>
<text text-anchor="middle" x="1750" y="-230.3" font-family="Times,serif" font-size="14.00" fill="#000000">{cont}</text>
</g>
<!-- 222&#45;&#45;2222 -->
<g id="edge69" class="edge">
<title>222&#45;&#45;2222</title>
<path fill="none" stroke="#000000" d="M1690.1874,-287.8314C1702.3148,-276.9167 1717.6928,-263.0764 1729.8191,-252.1628"/>
</g>
<!-- 22211 -->
<g id="node69" class="node">
<title>22211</title>
<text text-anchor="middle" x="1671" y="-158.3" font-family="Times,serif" font-size="14.00" fill="#000000">ɸ</text>
</g>
<!-- 2221&#45;&#45;22211 -->
<g id="edge68" class="edge">
<title>2221&#45;&#45;22211</title>
<path fill="none" stroke="#000000" d="M1670.2523,-215.8314C1670.4028,-205 1670.5932,-191.2876 1670.7443,-180.4133"/>
</g>
<!-- 22221 -->
<g id="node71" class="node">
<title>22221</title>
<text text-anchor="middle" x="1749" y="-158.3" font-family="Times,serif" font-size="14.00" fill="#000000">[voice]</text>
</g>
<!-- 2222&#45;&#45;22221 -->
<g id="edge70" class="edge">
<title>2222&#45;&#45;22221</title>
<path fill="none" stroke="#000000" d="M1749.7477,-215.8314C1749.5972,-205 1749.4068,-191.2876 1749.2557,-180.4133"/>
</g>
<!-- 22222 -->
<g id="node73" class="node">
<title>22222</title>
<text text-anchor="middle" x="1835" y="-158.3" font-family="Times,serif" font-size="14.00" fill="#000000">{voice}</text>
</g>
<!-- 2222&#45;&#45;22222 -->
<g id="edge72" class="edge">
<title>2222&#45;&#45;22222</title>
<path fill="none" stroke="#000000" d="M1771.4491,-215.8314C1784.3344,-204.9167 1800.6736,-191.0764 1813.5578,-180.1628"/>
</g>
<!-- 222211 -->
<g id="node72" class="node">
<title>222211</title>
<text text-anchor="middle" x="1749" y="-86.3" font-family="Times,serif" font-size="14.00" fill="#000000">b</text>
</g>
<!-- 22221&#45;&#45;222211 -->
<g id="edge71" class="edge">
<title>22221&#45;&#45;222211</title>
<path fill="none" stroke="#000000" d="M1749,-143.8314C1749,-133 1749,-119.2876 1749,-108.4133"/>
</g>
<!-- 222221 -->
<g id="node74" class="node">
<title>222221</title>
<text text-anchor="middle" x="1835" y="-86.3" font-family="Times,serif" font-size="14.00" fill="#000000">p</text>
</g>
<!-- 22222&#45;&#45;222221 -->
<g id="edge73" class="edge">
<title>22222&#45;&#45;222221</title>
<path fill="none" stroke="#000000" d="M1835,-143.8314C1835,-133 1835,-119.2876 1835,-108.4133"/>
</g>
</g>
</svg>
