<?xml version="1.0" encoding="UTF-8" standalone="no"?>
<!DOCTYPE svg PUBLIC "-//W3C//DTD SVG 1.1//EN"
 "http://www.w3.org/Graphics/SVG/1.1/DTD/svg11.dtd">
<!-- Generated by graphviz version 2.40.1 (0)
 -->
<!-- Title: %3 Pages: 1 -->
<svg width="840pt" height="332pt"
 viewBox="0.00 0.00 840.00 332.00" xmlns="http://www.w3.org/2000/svg" xmlns:xlink="http://www.w3.org/1999/xlink">
<g id="graph0" class="graph" transform="scale(1 1) rotate(0) translate(4 328)">
<title>%3</title>
<!-- 0 -->
<g id="node1" class="node">
<title>0</title>
<text text-anchor="middle" x="301.5" y="-302.3" font-family="Times,serif" font-size="14.00" fill="#000000">[cons]</text>
</g>
<!-- 1 -->
<g id="node2" class="node">
<title>1</title>
<text text-anchor="middle" x="225.5" y="-230.3" font-family="Times,serif" font-size="14.00" fill="#000000">[son]</text>
</g>
<!-- 0&#45;&#45;1 -->
<g id="edge1" class="edge">
<title>0&#45;&#45;1</title>
<path fill="none" stroke="#000000" d="M282.322,-287.8314C270.801,-276.9167 256.1918,-263.0764 244.6719,-252.1628"/>
</g>
<!-- 2 -->
<g id="node9" class="node">
<title>2</title>
<text text-anchor="middle" x="384.5" y="-230.3" font-family="Times,serif" font-size="14.00" fill="#000000">{son}</text>
</g>
<!-- 0&#45;&#45;2 -->
<g id="edge8" class="edge">
<title>0&#45;&#45;2</title>
<path fill="none" stroke="#000000" d="M322.4444,-287.8314C335.0266,-276.9167 350.9813,-263.0764 363.5623,-252.1628"/>
</g>
<!-- 11 -->
<g id="node3" class="node">
<title>11</title>
<text text-anchor="middle" x="110.5" y="-158.3" font-family="Times,serif" font-size="14.00" fill="#000000">[dor]</text>
</g>
<!-- 1&#45;&#45;11 -->
<g id="edge2" class="edge">
<title>1&#45;&#45;11</title>
<path fill="none" stroke="#000000" d="M198.2466,-216.937C179.9147,-205.4596 155.8487,-190.3922 137.5578,-178.9405"/>
</g>
<!-- 12 -->
<g id="node6" class="node">
<title>12</title>
<text text-anchor="middle" x="225.5" y="-158.3" font-family="Times,serif" font-size="14.00" fill="#000000">{dor}</text>
</g>
<!-- 1&#45;&#45;12 -->
<g id="edge5" class="edge">
<title>1&#45;&#45;12</title>
<path fill="none" stroke="#000000" d="M225.5,-215.8314C225.5,-205 225.5,-191.2876 225.5,-180.4133"/>
</g>
<!-- 111 -->
<g id="node4" class="node">
<title>111</title>
<text text-anchor="middle" x="29.5" y="-86.3" font-family="Times,serif" font-size="14.00" fill="#000000">[high]</text>
</g>
<!-- 11&#45;&#45;111 -->
<g id="edge3" class="edge">
<title>11&#45;&#45;111</title>
<path fill="none" stroke="#000000" d="M90.0603,-143.8314C77.7813,-132.9167 62.211,-119.0764 49.9332,-108.1628"/>
</g>
<!-- 112 -->
<g id="node5" class="node">
<title>112</title>
<text text-anchor="middle" x="110.5" y="-86.3" font-family="Times,serif" font-size="14.00" fill="#000000">{high}</text>
</g>
<!-- 11&#45;&#45;112 -->
<g id="edge4" class="edge">
<title>11&#45;&#45;112</title>
<path fill="none" stroke="#000000" d="M110.5,-143.8314C110.5,-133 110.5,-119.2876 110.5,-108.4133"/>
</g>
<!-- 121 -->
<g id="node7" class="node">
<title>121</title>
<text text-anchor="middle" x="188.5" y="-86.3" font-family="Times,serif" font-size="14.00" fill="#000000">[cor]</text>
</g>
<!-- 12&#45;&#45;121 -->
<g id="edge6" class="edge">
<title>12&#45;&#45;121</title>
<path fill="none" stroke="#000000" d="M216.1633,-143.8314C210.5972,-133 203.5506,-119.2876 197.9624,-108.4133"/>
</g>
<!-- 122 -->
<g id="node8" class="node">
<title>122</title>
<text text-anchor="middle" x="262.5" y="-86.3" font-family="Times,serif" font-size="14.00" fill="#000000">{cor}</text>
</g>
<!-- 12&#45;&#45;122 -->
<g id="edge7" class="edge">
<title>12&#45;&#45;122</title>
<path fill="none" stroke="#000000" d="M234.8367,-143.8314C240.4028,-133 247.4494,-119.2876 253.0376,-108.4133"/>
</g>
<!-- 21 -->
<g id="node10" class="node">
<title>21</title>
<text text-anchor="middle" x="384.5" y="-158.3" font-family="Times,serif" font-size="14.00" fill="#000000">[dor]</text>
</g>
<!-- 2&#45;&#45;21 -->
<g id="edge9" class="edge">
<title>2&#45;&#45;21</title>
<path fill="none" stroke="#000000" d="M384.5,-215.8314C384.5,-205 384.5,-191.2876 384.5,-180.4133"/>
</g>
<!-- 22 -->
<g id="node17" class="node">
<title>22</title>
<text text-anchor="middle" x="612.5" y="-158.3" font-family="Times,serif" font-size="14.00" fill="#000000">{dor}</text>
</g>
<!-- 2&#45;&#45;22 -->
<g id="edge16" class="edge">
<title>2&#45;&#45;22</title>
<path fill="none" stroke="#000000" d="M414.307,-224.5873C458.003,-210.7885 538.9855,-185.2151 582.6857,-171.4151"/>
</g>
<!-- 211 -->
<g id="node11" class="node">
<title>211</title>
<text text-anchor="middle" x="341.5" y="-86.3" font-family="Times,serif" font-size="14.00" fill="#000000">[voice]</text>
</g>
<!-- 21&#45;&#45;211 -->
<g id="edge10" class="edge">
<title>21&#45;&#45;211</title>
<path fill="none" stroke="#000000" d="M373.6493,-143.8314C367.1806,-133 358.9912,-119.2876 352.4968,-108.4133"/>
</g>
<!-- 212 -->
<g id="node14" class="node">
<title>212</title>
<text text-anchor="middle" x="427.5" y="-86.3" font-family="Times,serif" font-size="14.00" fill="#000000">{voice}</text>
</g>
<!-- 21&#45;&#45;212 -->
<g id="edge13" class="edge">
<title>21&#45;&#45;212</title>
<path fill="none" stroke="#000000" d="M395.3507,-143.8314C401.8194,-133 410.0088,-119.2876 416.5032,-108.4133"/>
</g>
<!-- 2111 -->
<g id="node12" class="node">
<title>2111</title>
<text text-anchor="middle" x="260.5" y="-14.3" font-family="Times,serif" font-size="14.00" fill="#000000">[high]</text>
</g>
<!-- 211&#45;&#45;2111 -->
<g id="edge11" class="edge">
<title>211&#45;&#45;2111</title>
<path fill="none" stroke="#000000" d="M321.0603,-71.8314C308.7813,-60.9167 293.211,-47.0764 280.9332,-36.1628"/>
</g>
<!-- 2112 -->
<g id="node13" class="node">
<title>2112</title>
<text text-anchor="middle" x="341.5" y="-14.3" font-family="Times,serif" font-size="14.00" fill="#000000">{high}</text>
</g>
<!-- 211&#45;&#45;2112 -->
<g id="edge12" class="edge">
<title>211&#45;&#45;2112</title>
<path fill="none" stroke="#000000" d="M341.5,-71.8314C341.5,-61 341.5,-47.2876 341.5,-36.4133"/>
</g>
<!-- 2121 -->
<g id="node15" class="node">
<title>2121</title>
<text text-anchor="middle" x="422.5" y="-14.3" font-family="Times,serif" font-size="14.00" fill="#000000">[high]</text>
</g>
<!-- 212&#45;&#45;2121 -->
<g id="edge14" class="edge">
<title>212&#45;&#45;2121</title>
<path fill="none" stroke="#000000" d="M426.2383,-71.8314C425.4861,-61 424.5339,-47.2876 423.7787,-36.4133"/>
</g>
<!-- 2122 -->
<g id="node16" class="node">
<title>2122</title>
<text text-anchor="middle" x="503.5" y="-14.3" font-family="Times,serif" font-size="14.00" fill="#000000">{high}</text>
</g>
<!-- 212&#45;&#45;2122 -->
<g id="edge15" class="edge">
<title>212&#45;&#45;2122</title>
<path fill="none" stroke="#000000" d="M446.678,-71.8314C458.199,-60.9167 472.8082,-47.0764 484.3281,-36.1628"/>
</g>
<!-- 221 -->
<g id="node18" class="node">
<title>221</title>
<text text-anchor="middle" x="612.5" y="-86.3" font-family="Times,serif" font-size="14.00" fill="#000000">[voice]</text>
</g>
<!-- 22&#45;&#45;221 -->
<g id="edge17" class="edge">
<title>22&#45;&#45;221</title>
<path fill="none" stroke="#000000" d="M612.5,-143.8314C612.5,-133 612.5,-119.2876 612.5,-108.4133"/>
</g>
<!-- 222 -->
<g id="node21" class="node">
<title>222</title>
<text text-anchor="middle" x="729.5" y="-86.3" font-family="Times,serif" font-size="14.00" fill="#000000">{voice}</text>
</g>
<!-- 22&#45;&#45;222 -->
<g id="edge20" class="edge">
<title>22&#45;&#45;222</title>
<path fill="none" stroke="#000000" d="M642.024,-143.8314C659.7604,-132.9167 682.2508,-119.0764 699.9854,-108.1628"/>
</g>
<!-- 2211 -->
<g id="node19" class="node">
<title>2211</title>
<text text-anchor="middle" x="581.5" y="-14.3" font-family="Times,serif" font-size="14.00" fill="#000000">[cor]</text>
</g>
<!-- 221&#45;&#45;2211 -->
<g id="edge18" class="edge">
<title>221&#45;&#45;2211</title>
<path fill="none" stroke="#000000" d="M604.6774,-71.8314C600.0139,-61 594.1099,-47.2876 589.4279,-36.4133"/>
</g>
<!-- 2212 -->
<g id="node20" class="node">
<title>2212</title>
<text text-anchor="middle" x="655.5" y="-14.3" font-family="Times,serif" font-size="14.00" fill="#000000">{cor}</text>
</g>
<!-- 221&#45;&#45;2212 -->
<g id="edge19" class="edge">
<title>221&#45;&#45;2212</title>
<path fill="none" stroke="#000000" d="M623.3507,-71.8314C629.8194,-61 638.0088,-47.2876 644.5032,-36.4133"/>
</g>
<!-- 2221 -->
<g id="node22" class="node">
<title>2221</title>
<text text-anchor="middle" x="729.5" y="-14.3" font-family="Times,serif" font-size="14.00" fill="#000000">[cor]</text>
</g>
<!-- 222&#45;&#45;2221 -->
<g id="edge21" class="edge">
<title>222&#45;&#45;2221</title>
<path fill="none" stroke="#000000" d="M729.5,-71.8314C729.5,-61 729.5,-47.2876 729.5,-36.4133"/>
</g>
<!-- 2222 -->
<g id="node23" class="node">
<title>2222</title>
<text text-anchor="middle" x="803.5" y="-14.3" font-family="Times,serif" font-size="14.00" fill="#000000">{cor}</text>
</g>
<!-- 222&#45;&#45;2222 -->
<g id="edge22" class="edge">
<title>222&#45;&#45;2222</title>
<path fill="none" stroke="#000000" d="M748.1733,-71.8314C759.3912,-60.9167 773.6159,-47.0764 784.8326,-36.1628"/>
</g>
</g>
</svg>
