<?xml version="1.0" encoding="UTF-8" standalone="no"?>
<!DOCTYPE svg PUBLIC "-//W3C//DTD SVG 1.1//EN"
 "http://www.w3.org/Graphics/SVG/1.1/DTD/svg11.dtd">
<!-- Generated by graphviz version 2.40.1 (0)
 -->
<!-- Title: %3 Pages: 1 -->
<svg width="638pt" height="332pt"
 viewBox="0.00 0.00 637.50 332.00" xmlns="http://www.w3.org/2000/svg" xmlns:xlink="http://www.w3.org/1999/xlink">
<g id="graph0" class="graph" transform="scale(1 1) rotate(0) translate(4 328)">
<title>%3</title>
<!-- 0 -->
<g id="node1" class="node">
<title>0</title>
<text text-anchor="middle" x="296.5" y="-302.3" font-family="Times,serif" font-size="14.00" fill="#000000">[vowel]</text>
</g>
<!-- 1 -->
<g id="node2" class="node">
<title>1</title>
<text text-anchor="middle" x="252.5" y="-230.3" font-family="Times,serif" font-size="14.00" fill="#000000">[back]</text>
</g>
<!-- 0&#45;&#45;1 -->
<g id="edge1" class="edge">
<title>0&#45;&#45;1</title>
<path fill="none" stroke="#000000" d="M285.3969,-287.8314C278.7778,-277 270.398,-263.2876 263.7526,-252.4133"/>
</g>
<!-- 2 -->
<g id="node13" class="node">
<title>2</title>
<text text-anchor="middle" x="373.5" y="-230.3" font-family="Times,serif" font-size="14.00" fill="#000000">{back}</text>
</g>
<!-- 0&#45;&#45;2 -->
<g id="edge12" class="edge">
<title>0&#45;&#45;2</title>
<path fill="none" stroke="#000000" d="M315.9304,-287.8314C327.603,-276.9167 342.4044,-263.0764 354.0759,-252.1628"/>
</g>
<!-- 11 -->
<g id="node3" class="node">
<title>11</title>
<text text-anchor="middle" x="110.5" y="-158.3" font-family="Times,serif" font-size="14.00" fill="#000000">[tense]</text>
</g>
<!-- 1&#45;&#45;11 -->
<g id="edge2" class="edge">
<title>1&#45;&#45;11</title>
<path fill="none" stroke="#000000" d="M222.3855,-218.7307C199.2645,-207.0074 167.3687,-190.8348 143.5464,-178.7559"/>
</g>
<!-- 12 -->
<g id="node8" class="node">
<title>12</title>
<text text-anchor="middle" x="252.5" y="-158.3" font-family="Times,serif" font-size="14.00" fill="#000000">{tense}</text>
</g>
<!-- 1&#45;&#45;12 -->
<g id="edge7" class="edge">
<title>1&#45;&#45;12</title>
<path fill="none" stroke="#000000" d="M252.5,-215.8314C252.5,-205 252.5,-191.2876 252.5,-180.4133"/>
</g>
<!-- 111 -->
<g id="node4" class="node">
<title>111</title>
<text text-anchor="middle" x="29.5" y="-86.3" font-family="Times,serif" font-size="14.00" fill="#000000">[high]</text>
</g>
<!-- 11&#45;&#45;111 -->
<g id="edge3" class="edge">
<title>11&#45;&#45;111</title>
<path fill="none" stroke="#000000" d="M90.0603,-143.8314C77.7813,-132.9167 62.211,-119.0764 49.9332,-108.1628"/>
</g>
<!-- 112 -->
<g id="node6" class="node">
<title>112</title>
<text text-anchor="middle" x="110.5" y="-86.3" font-family="Times,serif" font-size="14.00" fill="#000000">{high}</text>
</g>
<!-- 11&#45;&#45;112 -->
<g id="edge5" class="edge">
<title>11&#45;&#45;112</title>
<path fill="none" stroke="#000000" d="M110.5,-143.8314C110.5,-133 110.5,-119.2876 110.5,-108.4133"/>
</g>
<!-- 1111 -->
<g id="node5" class="node">
<title>1111</title>
<text text-anchor="middle" x="29.5" y="-14.3" font-family="Times,serif" font-size="14.00" fill="#000000">ü</text>
</g>
<!-- 111&#45;&#45;1111 -->
<g id="edge4" class="edge">
<title>111&#45;&#45;1111</title>
<path fill="none" stroke="#000000" d="M29.5,-71.8314C29.5,-61 29.5,-47.2876 29.5,-36.4133"/>
</g>
<!-- 1121 -->
<g id="node7" class="node">
<title>1121</title>
<text text-anchor="middle" x="110.5" y="-14.3" font-family="Times,serif" font-size="14.00" fill="#000000">ö</text>
</g>
<!-- 112&#45;&#45;1121 -->
<g id="edge6" class="edge">
<title>112&#45;&#45;1121</title>
<path fill="none" stroke="#000000" d="M110.5,-71.8314C110.5,-61 110.5,-47.2876 110.5,-36.4133"/>
</g>
<!-- 121 -->
<g id="node9" class="node">
<title>121</title>
<text text-anchor="middle" x="191.5" y="-86.3" font-family="Times,serif" font-size="14.00" fill="#000000">[high]</text>
</g>
<!-- 12&#45;&#45;121 -->
<g id="edge8" class="edge">
<title>12&#45;&#45;121</title>
<path fill="none" stroke="#000000" d="M237.1071,-143.8314C227.9306,-133 216.3131,-119.2876 207.1001,-108.4133"/>
</g>
<!-- 122 -->
<g id="node11" class="node">
<title>122</title>
<text text-anchor="middle" x="272.5" y="-86.3" font-family="Times,serif" font-size="14.00" fill="#000000">{high}</text>
</g>
<!-- 12&#45;&#45;122 -->
<g id="edge10" class="edge">
<title>12&#45;&#45;122</title>
<path fill="none" stroke="#000000" d="M257.5468,-143.8314C260.5555,-133 264.3646,-119.2876 267.3852,-108.4133"/>
</g>
<!-- 1211 -->
<g id="node10" class="node">
<title>1211</title>
<text text-anchor="middle" x="191.5" y="-14.3" font-family="Times,serif" font-size="14.00" fill="#000000">u</text>
</g>
<!-- 121&#45;&#45;1211 -->
<g id="edge9" class="edge">
<title>121&#45;&#45;1211</title>
<path fill="none" stroke="#000000" d="M191.5,-71.8314C191.5,-61 191.5,-47.2876 191.5,-36.4133"/>
</g>
<!-- 1221 -->
<g id="node12" class="node">
<title>1221</title>
<text text-anchor="middle" x="272.5" y="-14.3" font-family="Times,serif" font-size="14.00" fill="#000000">o</text>
</g>
<!-- 122&#45;&#45;1221 -->
<g id="edge11" class="edge">
<title>122&#45;&#45;1221</title>
<path fill="none" stroke="#000000" d="M272.5,-71.8314C272.5,-61 272.5,-47.2876 272.5,-36.4133"/>
</g>
<!-- 21 -->
<g id="node14" class="node">
<title>21</title>
<text text-anchor="middle" x="373.5" y="-158.3" font-family="Times,serif" font-size="14.00" fill="#000000">[tense]</text>
</g>
<!-- 2&#45;&#45;21 -->
<g id="edge13" class="edge">
<title>2&#45;&#45;21</title>
<path fill="none" stroke="#000000" d="M373.5,-215.8314C373.5,-205 373.5,-191.2876 373.5,-180.4133"/>
</g>
<!-- 22 -->
<g id="node19" class="node">
<title>22</title>
<text text-anchor="middle" x="515.5" y="-158.3" font-family="Times,serif" font-size="14.00" fill="#000000">{tense}</text>
</g>
<!-- 2&#45;&#45;22 -->
<g id="edge18" class="edge">
<title>2&#45;&#45;22</title>
<path fill="none" stroke="#000000" d="M407.5125,-216.7542C429.3378,-205.6879 457.6324,-191.3413 479.7834,-180.1098"/>
</g>
<!-- 211 -->
<g id="node15" class="node">
<title>211</title>
<text text-anchor="middle" x="353.5" y="-86.3" font-family="Times,serif" font-size="14.00" fill="#000000">[high]</text>
</g>
<!-- 21&#45;&#45;211 -->
<g id="edge14" class="edge">
<title>21&#45;&#45;211</title>
<path fill="none" stroke="#000000" d="M368.4532,-143.8314C365.4445,-133 361.6354,-119.2876 358.6148,-108.4133"/>
</g>
<!-- 212 -->
<g id="node17" class="node">
<title>212</title>
<text text-anchor="middle" x="434.5" y="-86.3" font-family="Times,serif" font-size="14.00" fill="#000000">{high}</text>
</g>
<!-- 21&#45;&#45;212 -->
<g id="edge16" class="edge">
<title>21&#45;&#45;212</title>
<path fill="none" stroke="#000000" d="M388.8929,-143.8314C398.0694,-133 409.6869,-119.2876 418.8999,-108.4133"/>
</g>
<!-- 2111 -->
<g id="node16" class="node">
<title>2111</title>
<text text-anchor="middle" x="353.5" y="-14.3" font-family="Times,serif" font-size="14.00" fill="#000000">y</text>
</g>
<!-- 211&#45;&#45;2111 -->
<g id="edge15" class="edge">
<title>211&#45;&#45;2111</title>
<path fill="none" stroke="#000000" d="M353.5,-71.8314C353.5,-61 353.5,-47.2876 353.5,-36.4133"/>
</g>
<!-- 2121 -->
<g id="node18" class="node">
<title>2121</title>
<text text-anchor="middle" x="434.5" y="-14.3" font-family="Times,serif" font-size="14.00" fill="#000000">ë</text>
</g>
<!-- 212&#45;&#45;2121 -->
<g id="edge17" class="edge">
<title>212&#45;&#45;2121</title>
<path fill="none" stroke="#000000" d="M434.5,-71.8314C434.5,-61 434.5,-47.2876 434.5,-36.4133"/>
</g>
<!-- 221 -->
<g id="node20" class="node">
<title>221</title>
<text text-anchor="middle" x="515.5" y="-86.3" font-family="Times,serif" font-size="14.00" fill="#000000">[high]</text>
</g>
<!-- 22&#45;&#45;221 -->
<g id="edge19" class="edge">
<title>22&#45;&#45;221</title>
<path fill="none" stroke="#000000" d="M515.5,-143.8314C515.5,-133 515.5,-119.2876 515.5,-108.4133"/>
</g>
<!-- 222 -->
<g id="node22" class="node">
<title>222</title>
<text text-anchor="middle" x="596.5" y="-86.3" font-family="Times,serif" font-size="14.00" fill="#000000">{high}</text>
</g>
<!-- 22&#45;&#45;222 -->
<g id="edge21" class="edge">
<title>22&#45;&#45;222</title>
<path fill="none" stroke="#000000" d="M535.9397,-143.8314C548.2187,-132.9167 563.789,-119.0764 576.0668,-108.1628"/>
</g>
<!-- 2211 -->
<g id="node21" class="node">
<title>2211</title>
<text text-anchor="middle" x="515.5" y="-14.3" font-family="Times,serif" font-size="14.00" fill="#000000">i</text>
</g>
<!-- 221&#45;&#45;2211 -->
<g id="edge20" class="edge">
<title>221&#45;&#45;2211</title>
<path fill="none" stroke="#000000" d="M515.5,-71.8314C515.5,-61 515.5,-47.2876 515.5,-36.4133"/>
</g>
<!-- 2221 -->
<g id="node23" class="node">
<title>2221</title>
<text text-anchor="middle" x="596.5" y="-14.3" font-family="Times,serif" font-size="14.00" fill="#000000">e</text>
</g>
<!-- 222&#45;&#45;2221 -->
<g id="edge22" class="edge">
<title>222&#45;&#45;2221</title>
<path fill="none" stroke="#000000" d="M596.5,-71.8314C596.5,-61 596.5,-47.2876 596.5,-36.4133"/>
</g>
</g>
</svg>
