<?xml version="1.0" encoding="UTF-8" standalone="no"?>
<!DOCTYPE svg PUBLIC "-//W3C//DTD SVG 1.1//EN"
 "http://www.w3.org/Graphics/SVG/1.1/DTD/svg11.dtd">
<!-- Generated by graphviz version 2.40.1 (0)
 -->
<!-- Title: %3 Pages: 1 -->
<svg width="1146pt" height="404pt"
 viewBox="0.00 0.00 1146.00 404.00" xmlns="http://www.w3.org/2000/svg" xmlns:xlink="http://www.w3.org/1999/xlink">
<g id="graph0" class="graph" transform="scale(1 1) rotate(0) translate(4 400)">
<title>%3</title>
<!-- 0 -->
<g id="node1" class="node">
<title>0</title>
<text text-anchor="middle" x="486" y="-374.3" font-family="Times,serif" font-size="14.00" fill="#000000">vowel</text>
</g>
<!-- 1 -->
<g id="node2" class="node">
<title>1</title>
<text text-anchor="middle" x="367" y="-302.3" font-family="Times,serif" font-size="14.00" fill="#000000">[high]</text>
</g>
<!-- 0&#45;&#45;1 -->
<g id="edge1" class="edge">
<title>0&#45;&#45;1</title>
<path fill="none" stroke="#000000" d="M456.8893,-360.3868C438.5864,-349.3128 415.039,-335.0656 396.6368,-323.9315"/>
</g>
<!-- 2 -->
<g id="node19" class="node">
<title>2</title>
<text text-anchor="middle" x="617" y="-302.3" font-family="Times,serif" font-size="14.00" fill="#000000">{high}</text>
</g>
<!-- 0&#45;&#45;2 -->
<g id="edge18" class="edge">
<title>0&#45;&#45;2</title>
<path fill="none" stroke="#000000" d="M515.0731,-362.0209C535.4253,-350.835 562.6573,-335.8678 583.8532,-324.2181"/>
</g>
<!-- 11 -->
<g id="node3" class="node">
<title>11</title>
<text text-anchor="middle" x="211" y="-230.3" font-family="Times,serif" font-size="14.00" fill="#000000">[frnt]</text>
</g>
<!-- 1&#45;&#45;11 -->
<g id="edge2" class="edge">
<title>1&#45;&#45;11</title>
<path fill="none" stroke="#000000" d="M337.2904,-292.2879C308.7365,-279.1091 265.9481,-259.3606 238.2491,-246.5765"/>
</g>
<!-- 12 -->
<g id="node14" class="node">
<title>12</title>
<text text-anchor="middle" x="367" y="-230.3" font-family="Times,serif" font-size="14.00" fill="#000000">{frnt}</text>
</g>
<!-- 1&#45;&#45;12 -->
<g id="edge13" class="edge">
<title>1&#45;&#45;12</title>
<path fill="none" stroke="#000000" d="M367,-287.8314C367,-277 367,-263.2876 367,-252.4133"/>
</g>
<!-- 111 -->
<g id="node4" class="node">
<title>111</title>
<text text-anchor="middle" x="102" y="-158.3" font-family="Times,serif" font-size="14.00" fill="#000000">[tense]</text>
</g>
<!-- 11&#45;&#45;111 -->
<g id="edge3" class="edge">
<title>11&#45;&#45;111</title>
<path fill="none" stroke="#000000" d="M183.7759,-216.0171C167.1289,-205.0209 145.9074,-191.0031 129.2548,-180.0032"/>
</g>
<!-- 112 -->
<g id="node9" class="node">
<title>112</title>
<text text-anchor="middle" x="211" y="-158.3" font-family="Times,serif" font-size="14.00" fill="#000000">{tense}</text>
</g>
<!-- 11&#45;&#45;112 -->
<g id="edge8" class="edge">
<title>11&#45;&#45;112</title>
<path fill="none" stroke="#000000" d="M211,-215.8314C211,-205 211,-191.2876 211,-180.4133"/>
</g>
<!-- 1111 -->
<g id="node5" class="node">
<title>1111</title>
<text text-anchor="middle" x="27" y="-86.3" font-family="Times,serif" font-size="14.00" fill="#000000">[rnd]</text>
</g>
<!-- 111&#45;&#45;1111 -->
<g id="edge4" class="edge">
<title>111&#45;&#45;1111</title>
<path fill="none" stroke="#000000" d="M83.0743,-143.8314C71.7049,-132.9167 57.288,-119.0764 45.9196,-108.1628"/>
</g>
<!-- 1112 -->
<g id="node7" class="node">
<title>1112</title>
<text text-anchor="middle" x="102" y="-86.3" font-family="Times,serif" font-size="14.00" fill="#000000">{rnd}</text>
</g>
<!-- 111&#45;&#45;1112 -->
<g id="edge6" class="edge">
<title>111&#45;&#45;1112</title>
<path fill="none" stroke="#000000" d="M102,-143.8314C102,-133 102,-119.2876 102,-108.4133"/>
</g>
<!-- 11111 -->
<g id="node6" class="node">
<title>11111</title>
<text text-anchor="middle" x="27" y="-14.3" font-family="Times,serif" font-size="14.00" fill="#000000">ʏ</text>
</g>
<!-- 1111&#45;&#45;11111 -->
<g id="edge5" class="edge">
<title>1111&#45;&#45;11111</title>
<path fill="none" stroke="#000000" d="M27,-71.8314C27,-61 27,-47.2876 27,-36.4133"/>
</g>
<!-- 11121 -->
<g id="node8" class="node">
<title>11121</title>
<text text-anchor="middle" x="102" y="-14.3" font-family="Times,serif" font-size="14.00" fill="#000000">ɪ</text>
</g>
<!-- 1112&#45;&#45;11121 -->
<g id="edge7" class="edge">
<title>1112&#45;&#45;11121</title>
<path fill="none" stroke="#000000" d="M102,-71.8314C102,-61 102,-47.2876 102,-36.4133"/>
</g>
<!-- 1121 -->
<g id="node10" class="node">
<title>1121</title>
<text text-anchor="middle" x="177" y="-86.3" font-family="Times,serif" font-size="14.00" fill="#000000">[rnd]</text>
</g>
<!-- 112&#45;&#45;1121 -->
<g id="edge9" class="edge">
<title>112&#45;&#45;1121</title>
<path fill="none" stroke="#000000" d="M202.4204,-143.8314C197.3056,-133 190.8302,-119.2876 185.6952,-108.4133"/>
</g>
<!-- 1122 -->
<g id="node12" class="node">
<title>1122</title>
<text text-anchor="middle" x="252" y="-86.3" font-family="Times,serif" font-size="14.00" fill="#000000">{rnd}</text>
</g>
<!-- 112&#45;&#45;1122 -->
<g id="edge11" class="edge">
<title>112&#45;&#45;1122</title>
<path fill="none" stroke="#000000" d="M221.346,-143.8314C227.5139,-133 235.3224,-119.2876 241.5147,-108.4133"/>
</g>
<!-- 11211 -->
<g id="node11" class="node">
<title>11211</title>
<text text-anchor="middle" x="177" y="-14.3" font-family="Times,serif" font-size="14.00" fill="#000000">y</text>
</g>
<!-- 1121&#45;&#45;11211 -->
<g id="edge10" class="edge">
<title>1121&#45;&#45;11211</title>
<path fill="none" stroke="#000000" d="M177,-71.8314C177,-61 177,-47.2876 177,-36.4133"/>
</g>
<!-- 11221 -->
<g id="node13" class="node">
<title>11221</title>
<text text-anchor="middle" x="252" y="-14.3" font-family="Times,serif" font-size="14.00" fill="#000000">i</text>
</g>
<!-- 1122&#45;&#45;11221 -->
<g id="edge12" class="edge">
<title>1122&#45;&#45;11221</title>
<path fill="none" stroke="#000000" d="M252,-71.8314C252,-61 252,-47.2876 252,-36.4133"/>
</g>
<!-- 121 -->
<g id="node15" class="node">
<title>121</title>
<text text-anchor="middle" x="323" y="-158.3" font-family="Times,serif" font-size="14.00" fill="#000000">[tense]</text>
</g>
<!-- 12&#45;&#45;121 -->
<g id="edge14" class="edge">
<title>12&#45;&#45;121</title>
<path fill="none" stroke="#000000" d="M355.8969,-215.8314C349.2778,-205 340.898,-191.2876 334.2526,-180.4133"/>
</g>
<!-- 122 -->
<g id="node17" class="node">
<title>122</title>
<text text-anchor="middle" x="411" y="-158.3" font-family="Times,serif" font-size="14.00" fill="#000000">{tense}</text>
</g>
<!-- 12&#45;&#45;122 -->
<g id="edge16" class="edge">
<title>12&#45;&#45;122</title>
<path fill="none" stroke="#000000" d="M378.1031,-215.8314C384.7222,-205 393.102,-191.2876 399.7474,-180.4133"/>
</g>
<!-- 1211 -->
<g id="node16" class="node">
<title>1211</title>
<text text-anchor="middle" x="327" y="-86.3" font-family="Times,serif" font-size="14.00" fill="#000000">ɨ</text>
</g>
<!-- 121&#45;&#45;1211 -->
<g id="edge15" class="edge">
<title>121&#45;&#45;1211</title>
<path fill="none" stroke="#000000" d="M324.0094,-143.8314C324.6111,-133 325.3729,-119.2876 325.977,-108.4133"/>
</g>
<!-- 1221 -->
<g id="node18" class="node">
<title>1221</title>
<text text-anchor="middle" x="407" y="-86.3" font-family="Times,serif" font-size="14.00" fill="#000000">ʊ</text>
</g>
<!-- 122&#45;&#45;1221 -->
<g id="edge17" class="edge">
<title>122&#45;&#45;1221</title>
<path fill="none" stroke="#000000" d="M409.9906,-143.8314C409.3889,-133 408.6271,-119.2876 408.023,-108.4133"/>
</g>
<!-- 21 -->
<g id="node20" class="node">
<title>21</title>
<text text-anchor="middle" x="617" y="-230.3" font-family="Times,serif" font-size="14.00" fill="#000000">[nas]</text>
</g>
<!-- 2&#45;&#45;21 -->
<g id="edge19" class="edge">
<title>2&#45;&#45;21</title>
<path fill="none" stroke="#000000" d="M617,-287.8314C617,-277 617,-263.2876 617,-252.4133"/>
</g>
<!-- 22 -->
<g id="node31" class="node">
<title>22</title>
<text text-anchor="middle" x="881" y="-230.3" font-family="Times,serif" font-size="14.00" fill="#000000">{nas}</text>
</g>
<!-- 2&#45;&#45;22 -->
<g id="edge30" class="edge">
<title>2&#45;&#45;22</title>
<path fill="none" stroke="#000000" d="M650.1685,-296.9541C702.1008,-282.7907 801.7881,-255.6033 851.4181,-242.0678"/>
</g>
<!-- 211 -->
<g id="node21" class="node">
<title>211</title>
<text text-anchor="middle" x="573" y="-158.3" font-family="Times,serif" font-size="14.00" fill="#000000">[frnt]</text>
</g>
<!-- 21&#45;&#45;211 -->
<g id="edge20" class="edge">
<title>21&#45;&#45;211</title>
<path fill="none" stroke="#000000" d="M605.8969,-215.8314C599.2778,-205 590.898,-191.2876 584.2526,-180.4133"/>
</g>
<!-- 212 -->
<g id="node26" class="node">
<title>212</title>
<text text-anchor="middle" x="661" y="-158.3" font-family="Times,serif" font-size="14.00" fill="#000000">{frnt}</text>
</g>
<!-- 21&#45;&#45;212 -->
<g id="edge25" class="edge">
<title>21&#45;&#45;212</title>
<path fill="none" stroke="#000000" d="M628.1031,-215.8314C634.7222,-205 643.102,-191.2876 649.7474,-180.4133"/>
</g>
<!-- 2111 -->
<g id="node22" class="node">
<title>2111</title>
<text text-anchor="middle" x="485" y="-86.3" font-family="Times,serif" font-size="14.00" fill="#000000">[tense]</text>
</g>
<!-- 211&#45;&#45;2111 -->
<g id="edge21" class="edge">
<title>211&#45;&#45;2111</title>
<path fill="none" stroke="#000000" d="M550.7939,-143.8314C537.4537,-132.9167 520.5379,-119.0764 507.199,-108.1628"/>
</g>
<!-- 2112 -->
<g id="node24" class="node">
<title>2112</title>
<text text-anchor="middle" x="573" y="-86.3" font-family="Times,serif" font-size="14.00" fill="#000000">{tense}</text>
</g>
<!-- 211&#45;&#45;2112 -->
<g id="edge23" class="edge">
<title>211&#45;&#45;2112</title>
<path fill="none" stroke="#000000" d="M573,-143.8314C573,-133 573,-119.2876 573,-108.4133"/>
</g>
<!-- 21111 -->
<g id="node23" class="node">
<title>21111</title>
<text text-anchor="middle" x="485" y="-14.3" font-family="Times,serif" font-size="14.00" fill="#000000">ø̃</text>
</g>
<!-- 2111&#45;&#45;21111 -->
<g id="edge22" class="edge">
<title>2111&#45;&#45;21111</title>
<path fill="none" stroke="#000000" d="M485,-71.8314C485,-61 485,-47.2876 485,-36.4133"/>
</g>
<!-- 21121 -->
<g id="node25" class="node">
<title>21121</title>
<text text-anchor="middle" x="573" y="-14.3" font-family="Times,serif" font-size="14.00" fill="#000000">ɛ̃</text>
</g>
<!-- 2112&#45;&#45;21121 -->
<g id="edge24" class="edge">
<title>2112&#45;&#45;21121</title>
<path fill="none" stroke="#000000" d="M573,-71.8314C573,-61 573,-47.2876 573,-36.4133"/>
</g>
<!-- 2121 -->
<g id="node27" class="node">
<title>2121</title>
<text text-anchor="middle" x="661" y="-86.3" font-family="Times,serif" font-size="14.00" fill="#000000">[tense]</text>
</g>
<!-- 212&#45;&#45;2121 -->
<g id="edge26" class="edge">
<title>212&#45;&#45;2121</title>
<path fill="none" stroke="#000000" d="M661,-143.8314C661,-133 661,-119.2876 661,-108.4133"/>
</g>
<!-- 2122 -->
<g id="node29" class="node">
<title>2122</title>
<text text-anchor="middle" x="749" y="-86.3" font-family="Times,serif" font-size="14.00" fill="#000000">{tense}</text>
</g>
<!-- 212&#45;&#45;2122 -->
<g id="edge28" class="edge">
<title>212&#45;&#45;2122</title>
<path fill="none" stroke="#000000" d="M683.2061,-143.8314C696.5463,-132.9167 713.4621,-119.0764 726.801,-108.1628"/>
</g>
<!-- 21211 -->
<g id="node28" class="node">
<title>21211</title>
<text text-anchor="middle" x="661" y="-14.3" font-family="Times,serif" font-size="14.00" fill="#000000">ɤ̃</text>
</g>
<!-- 2121&#45;&#45;21211 -->
<g id="edge27" class="edge">
<title>2121&#45;&#45;21211</title>
<path fill="none" stroke="#000000" d="M661,-71.8314C661,-61 661,-47.2876 661,-36.4133"/>
</g>
<!-- 21221 -->
<g id="node30" class="node">
<title>21221</title>
<text text-anchor="middle" x="749" y="-14.3" font-family="Times,serif" font-size="14.00" fill="#000000">ɑ̃</text>
</g>
<!-- 2122&#45;&#45;21221 -->
<g id="edge29" class="edge">
<title>2122&#45;&#45;21221</title>
<path fill="none" stroke="#000000" d="M749,-71.8314C749,-61 749,-47.2876 749,-36.4133"/>
</g>
<!-- 221 -->
<g id="node32" class="node">
<title>221</title>
<text text-anchor="middle" x="881" y="-158.3" font-family="Times,serif" font-size="14.00" fill="#000000">[frnt]</text>
</g>
<!-- 22&#45;&#45;221 -->
<g id="edge31" class="edge">
<title>22&#45;&#45;221</title>
<path fill="none" stroke="#000000" d="M881,-215.8314C881,-205 881,-191.2876 881,-180.4133"/>
</g>
<!-- 222 -->
<g id="node37" class="node">
<title>222</title>
<text text-anchor="middle" x="1013" y="-158.3" font-family="Times,serif" font-size="14.00" fill="#000000">{frnt}</text>
</g>
<!-- 22&#45;&#45;222 -->
<g id="edge36" class="edge">
<title>22&#45;&#45;222</title>
<path fill="none" stroke="#000000" d="M910.6234,-217.8418C931.7546,-206.3157 960.1208,-190.8432 981.6355,-179.1079"/>
</g>
<!-- 2211 -->
<g id="node33" class="node">
<title>2211</title>
<text text-anchor="middle" x="837" y="-86.3" font-family="Times,serif" font-size="14.00" fill="#000000">[tense]</text>
</g>
<!-- 221&#45;&#45;2211 -->
<g id="edge32" class="edge">
<title>221&#45;&#45;2211</title>
<path fill="none" stroke="#000000" d="M869.8969,-143.8314C863.2778,-133 854.898,-119.2876 848.2526,-108.4133"/>
</g>
<!-- 2212 -->
<g id="node35" class="node">
<title>2212</title>
<text text-anchor="middle" x="925" y="-86.3" font-family="Times,serif" font-size="14.00" fill="#000000">{tense}</text>
</g>
<!-- 221&#45;&#45;2212 -->
<g id="edge34" class="edge">
<title>221&#45;&#45;2212</title>
<path fill="none" stroke="#000000" d="M892.1031,-143.8314C898.7222,-133 907.102,-119.2876 913.7474,-108.4133"/>
</g>
<!-- 22111 -->
<g id="node34" class="node">
<title>22111</title>
<text text-anchor="middle" x="837" y="-14.3" font-family="Times,serif" font-size="14.00" fill="#000000">ø</text>
</g>
<!-- 2211&#45;&#45;22111 -->
<g id="edge33" class="edge">
<title>2211&#45;&#45;22111</title>
<path fill="none" stroke="#000000" d="M837,-71.8314C837,-61 837,-47.2876 837,-36.4133"/>
</g>
<!-- 22121 -->
<g id="node36" class="node">
<title>22121</title>
<text text-anchor="middle" x="925" y="-14.3" font-family="Times,serif" font-size="14.00" fill="#000000">ɛ</text>
</g>
<!-- 2212&#45;&#45;22121 -->
<g id="edge35" class="edge">
<title>2212&#45;&#45;22121</title>
<path fill="none" stroke="#000000" d="M925,-71.8314C925,-61 925,-47.2876 925,-36.4133"/>
</g>
<!-- 2221 -->
<g id="node38" class="node">
<title>2221</title>
<text text-anchor="middle" x="1013" y="-86.3" font-family="Times,serif" font-size="14.00" fill="#000000">[tense]</text>
</g>
<!-- 222&#45;&#45;2221 -->
<g id="edge37" class="edge">
<title>222&#45;&#45;2221</title>
<path fill="none" stroke="#000000" d="M1013,-143.8314C1013,-133 1013,-119.2876 1013,-108.4133"/>
</g>
<!-- 2222 -->
<g id="node40" class="node">
<title>2222</title>
<text text-anchor="middle" x="1101" y="-86.3" font-family="Times,serif" font-size="14.00" fill="#000000">{tense}</text>
</g>
<!-- 222&#45;&#45;2222 -->
<g id="edge39" class="edge">
<title>222&#45;&#45;2222</title>
<path fill="none" stroke="#000000" d="M1035.2061,-143.8314C1048.5463,-132.9167 1065.4621,-119.0764 1078.801,-108.1628"/>
</g>
<!-- 22211 -->
<g id="node39" class="node">
<title>22211</title>
<text text-anchor="middle" x="1013" y="-14.3" font-family="Times,serif" font-size="14.00" fill="#000000">ɤ</text>
</g>
<!-- 2221&#45;&#45;22211 -->
<g id="edge38" class="edge">
<title>2221&#45;&#45;22211</title>
<path fill="none" stroke="#000000" d="M1013,-71.8314C1013,-61 1013,-47.2876 1013,-36.4133"/>
</g>
<!-- 22221 -->
<g id="node41" class="node">
<title>22221</title>
<text text-anchor="middle" x="1101" y="-14.3" font-family="Times,serif" font-size="14.00" fill="#000000">a</text>
</g>
<!-- 2222&#45;&#45;22221 -->
<g id="edge40" class="edge">
<title>2222&#45;&#45;22221</title>
<path fill="none" stroke="#000000" d="M1101,-71.8314C1101,-61 1101,-47.2876 1101,-36.4133"/>
</g>
</g>
</svg>
