<?xml version="1.0" encoding="UTF-8" standalone="no"?>
<svg
   xmlns:dc="http://purl.org/dc/elements/1.1/"
   xmlns:cc="http://creativecommons.org/ns#"
   xmlns:rdf="http://www.w3.org/1999/02/22-rdf-syntax-ns#"
   xmlns:svg="http://www.w3.org/2000/svg"
   xmlns="http://www.w3.org/2000/svg"
   xmlns:sodipodi="http://sodipodi.sourceforge.net/DTD/sodipodi-0.dtd"
   xmlns:inkscape="http://www.inkscape.org/namespaces/inkscape"
   inkscape:export-ydpi="300"
   inkscape:export-xdpi="300"
   inkscape:export-filename="/home/phundrak/Documents/conlanging/content/img/eittland/flag-vertical.png"
   inkscape:version="1.0 (4035a4fb49, 2020-05-01)"
   sodipodi:docname="flag-vertical.svg"
   id="svg8"
   height="360"
   width="240"
   y="0"
   x="0"
   version="1.0">
  <metadata
     id="metadata14">
    <rdf:RDF>
      <cc:Work
         rdf:about="">
        <dc:format>image/svg+xml</dc:format>
        <dc:type
           rdf:resource="http://purl.org/dc/dcmitype/StillImage" />
        <dc:title />
      </cc:Work>
    </rdf:RDF>
  </metadata>
  <defs
     id="defs12" />
  <sodipodi:namedview
     inkscape:document-rotation="0"
     inkscape:current-layer="svg8"
     inkscape:window-maximized="0"
     inkscape:window-y="24"
     inkscape:window-x="1924"
     inkscape:cy="185.10955"
     inkscape:cx="3.5359233"
     inkscape:zoom="1.9666667"
     showgrid="false"
     id="namedview10"
     inkscape:window-height="1052"
     inkscape:window-width="2532"
     inkscape:pageshadow="2"
     inkscape:pageopacity="0"
     guidetolerance="10"
     gridtolerance="10"
     objecttolerance="10"
     borderopacity="1"
     bordercolor="#666666"
     pagecolor="#ffffff" />
  <rect
     id="rect2"
     fill="#ce1126"
     y="0"
     x="0"
     height="240"
     width="360"
     transform="matrix(0,1,1,0,0,0)" />
  <polygon
     transform="matrix(0,1,1,0,0,0)"
     id="polygon4"
     fill="#00335b"
     points="360,240 360,0 0,240 " />
  <polygon
     transform="matrix(0,1,1,0,0,0)"
     id="polygon6"
     fill="#108042"
     points="0,200 0,240 40,240 360,40 360,0 320,0 " />
  <g
     inkscape:export-ydpi="1066"
     inkscape:export-xdpi="1066"
     style="fill:#ffffff"
     id="svgg"
     transform="matrix(-0.44703589,0,0,0.44703589,210.07773,90.884735)">
    <path
       d="m 199.474,48.196 c -10.497,10.13 -26.664,16.849 -41.724,17.342 -2.062,0.068 -3.75,0.155 -3.75,0.194 0,0.232 1.566,3.991 2.144,5.146 1.111,2.221 3.67,6.288 7.093,11.273 6.29,9.161 9.274,14.467 10.826,19.249 1.109,3.416 1.379,12.058 0.636,20.3 -0.06,0.66 -0.461,4.935 -0.892,9.5 -0.431,4.565 -0.897,9.65 -1.035,11.3 -0.299,3.557 -0.316,14.88 -0.027,17.3 0.228,1.902 -0.001,21.878 -0.346,30.3 -0.423,10.311 -1.586,17.558 -3.941,24.557 l -0.928,2.757 -1.571,1.501 c -9.209,8.798 -38.556,15.747 -66.559,15.759 -11.227,0.005 -18.947,-1.156 -52.43,-7.883 -3.261,-0.655 -6.028,-1.191 -6.15,-1.191 -0.301,0 -0.281,1.691 0.079,6.455 0.847,11.219 2.086,18.581 6.525,38.745 3.64,16.538 5.094,24.063 6.367,32.96 0.225,1.572 0.409,2.888 0.409,2.922 0,0.035 0.787,0.125 1.75,0.2 20.131,1.577 36.457,4.776 52.345,10.257 29.108,10.039 49.555,15.446 63.805,16.871 11.994,1.199 22.605,7.592 28.408,17.115 0.444,0.729 0.891,1.326 0.992,1.326 0.101,0 0.548,-0.597 0.992,-1.326 5.803,-9.523 16.414,-15.916 28.408,-17.115 14.25,-1.425 34.697,-6.832 63.805,-16.871 15.888,-5.481 32.214,-8.68 52.345,-10.257 0.963,-0.075 1.75,-0.165 1.75,-0.2 0,-0.034 0.184,-1.35 0.409,-2.922 1.273,-8.897 2.727,-16.422 6.367,-32.96 4.439,-20.164 5.678,-27.526 6.525,-38.745 0.36,-4.764 0.38,-6.455 0.079,-6.455 -0.122,0 -2.889,0.536 -6.15,1.191 -33.483,6.727 -41.203,7.888 -52.43,7.883 -28.003,-0.012 -57.35,-6.961 -66.559,-15.759 l -1.571,-1.501 -0.928,-2.757 c -2.355,-6.999 -3.518,-14.246 -3.941,-24.557 -0.345,-8.422 -0.574,-28.398 -0.346,-30.3 0.289,-2.42 0.272,-13.743 -0.027,-17.3 -0.138,-1.65 -0.604,-6.735 -1.035,-11.3 -0.431,-4.565 -0.832,-8.84 -0.892,-9.5 -1.602,-17.765 -0.219,-22.537 11.462,-39.549 3.423,-4.985 5.982,-9.052 7.093,-11.273 0.578,-1.155 2.144,-4.914 2.144,-5.146 0,-0.039 -1.687,-0.126 -3.75,-0.194 -15.059,-0.493 -31.192,-7.197 -41.72,-17.337 l -2.033,-1.958 -2.023,1.953"
       id="path0"
       inkscape:connector-curvature="0"
       style="fill:#ffffff;fill-rule:evenodd;stroke:none" />
  </g>
</svg>
