<?xml version="1.0" encoding="UTF-8" standalone="no"?>
<!DOCTYPE svg PUBLIC "-//W3C//DTD SVG 1.1//EN"
 "http://www.w3.org/Graphics/SVG/1.1/DTD/svg11.dtd">
<!-- Generated by graphviz version 2.40.1 (0)
 -->
<!-- Title: %3 Pages: 1 -->
<svg width="707pt" height="404pt"
 viewBox="0.00 0.00 707.00 404.00" xmlns="http://www.w3.org/2000/svg" xmlns:xlink="http://www.w3.org/1999/xlink">
<g id="graph0" class="graph" transform="scale(1 1) rotate(0) translate(4 400)">
<title>%3</title>
<!-- 0 -->
<g id="node1" class="node">
<title>0</title>
<text text-anchor="middle" x="279" y="-374.3" font-family="Times,serif" font-size="14.00" fill="#000000">vowels</text>
</g>
<!-- 1 -->
<g id="node2" class="node">
<title>1</title>
<text text-anchor="middle" x="196" y="-302.3" font-family="Times,serif" font-size="14.00" fill="#000000">[high]</text>
</g>
<!-- 0&#45;&#45;1 -->
<g id="edge1" class="edge">
<title>0&#45;&#45;1</title>
<path fill="none" stroke="#000000" d="M258.0556,-359.8314C245.4734,-348.9167 229.5187,-335.0764 216.9377,-324.1628"/>
</g>
<!-- 2 -->
<g id="node10" class="node">
<title>2</title>
<text text-anchor="middle" x="321" y="-302.3" font-family="Times,serif" font-size="14.00" fill="#000000">{high}</text>
</g>
<!-- 0&#45;&#45;2 -->
<g id="edge9" class="edge">
<title>0&#45;&#45;2</title>
<path fill="none" stroke="#000000" d="M289.5984,-359.8314C295.9167,-349 303.9156,-335.2876 310.2589,-324.4133"/>
</g>
<!-- 11 -->
<g id="node3" class="node">
<title>11</title>
<text text-anchor="middle" x="115" y="-230.3" font-family="Times,serif" font-size="14.00" fill="#000000">[rnd]</text>
</g>
<!-- 1&#45;&#45;11 -->
<g id="edge2" class="edge">
<title>1&#45;&#45;11</title>
<path fill="none" stroke="#000000" d="M175.5603,-287.8314C163.2813,-276.9167 147.711,-263.0764 135.4332,-252.1628"/>
</g>
<!-- 12 -->
<g id="node8" class="node">
<title>12</title>
<text text-anchor="middle" x="196" y="-230.3" font-family="Times,serif" font-size="14.00" fill="#000000">{rnd}</text>
</g>
<!-- 1&#45;&#45;12 -->
<g id="edge7" class="edge">
<title>1&#45;&#45;12</title>
<path fill="none" stroke="#000000" d="M196,-287.8314C196,-277 196,-263.2876 196,-252.4133"/>
</g>
<!-- 111 -->
<g id="node4" class="node">
<title>111</title>
<text text-anchor="middle" x="31" y="-158.3" font-family="Times,serif" font-size="14.00" fill="#000000">[front]</text>
</g>
<!-- 11&#45;&#45;111 -->
<g id="edge3" class="edge">
<title>11&#45;&#45;111</title>
<path fill="none" stroke="#000000" d="M93.8033,-215.8314C81.0695,-204.9167 64.9225,-191.0764 52.19,-180.1628"/>
</g>
<!-- 112 -->
<g id="node6" class="node">
<title>112</title>
<text text-anchor="middle" x="115" y="-158.3" font-family="Times,serif" font-size="14.00" fill="#000000">{front}</text>
</g>
<!-- 11&#45;&#45;112 -->
<g id="edge5" class="edge">
<title>11&#45;&#45;112</title>
<path fill="none" stroke="#000000" d="M115,-215.8314C115,-205 115,-191.2876 115,-180.4133"/>
</g>
<!-- 1111 -->
<g id="node5" class="node">
<title>1111</title>
<text text-anchor="middle" x="31" y="-86.3" font-family="Times,serif" font-size="14.00" fill="#000000">/y/</text>
</g>
<!-- 111&#45;&#45;1111 -->
<g id="edge4" class="edge">
<title>111&#45;&#45;1111</title>
<path fill="none" stroke="#000000" d="M31,-143.8314C31,-133 31,-119.2876 31,-108.4133"/>
</g>
<!-- 1121 -->
<g id="node7" class="node">
<title>1121</title>
<text text-anchor="middle" x="114" y="-86.3" font-family="Times,serif" font-size="14.00" fill="#000000">/u/</text>
</g>
<!-- 112&#45;&#45;1121 -->
<g id="edge6" class="edge">
<title>112&#45;&#45;1121</title>
<path fill="none" stroke="#000000" d="M114.7477,-143.8314C114.5972,-133 114.4068,-119.2876 114.2557,-108.4133"/>
</g>
<!-- 121 -->
<g id="node9" class="node">
<title>121</title>
<text text-anchor="middle" x="196" y="-158.3" font-family="Times,serif" font-size="14.00" fill="#000000">/i/</text>
</g>
<!-- 12&#45;&#45;121 -->
<g id="edge8" class="edge">
<title>12&#45;&#45;121</title>
<path fill="none" stroke="#000000" d="M196,-215.8314C196,-205 196,-191.2876 196,-180.4133"/>
</g>
<!-- 21 -->
<g id="node11" class="node">
<title>21</title>
<text text-anchor="middle" x="321" y="-230.3" font-family="Times,serif" font-size="14.00" fill="#000000">[rnd]</text>
</g>
<!-- 2&#45;&#45;21 -->
<g id="edge10" class="edge">
<title>2&#45;&#45;21</title>
<path fill="none" stroke="#000000" d="M321,-287.8314C321,-277 321,-263.2876 321,-252.4133"/>
</g>
<!-- 22 -->
<g id="node22" class="node">
<title>22</title>
<text text-anchor="middle" x="537" y="-230.3" font-family="Times,serif" font-size="14.00" fill="#000000">{rnd}</text>
</g>
<!-- 2&#45;&#45;22 -->
<g id="edge21" class="edge">
<title>2&#45;&#45;22</title>
<path fill="none" stroke="#000000" d="M354.2766,-294.9078C396.0504,-280.9832 467.0788,-257.3071 507.1655,-243.9448"/>
</g>
<!-- 211 -->
<g id="node12" class="node">
<title>211</title>
<text text-anchor="middle" x="274" y="-158.3" font-family="Times,serif" font-size="14.00" fill="#000000">[tense]</text>
</g>
<!-- 21&#45;&#45;211 -->
<g id="edge11" class="edge">
<title>21&#45;&#45;211</title>
<path fill="none" stroke="#000000" d="M309.1399,-215.8314C302.0695,-205 293.1183,-191.2876 286.0198,-180.4133"/>
</g>
<!-- 212 -->
<g id="node17" class="node">
<title>212</title>
<text text-anchor="middle" x="362" y="-158.3" font-family="Times,serif" font-size="14.00" fill="#000000">{tense}</text>
</g>
<!-- 21&#45;&#45;212 -->
<g id="edge16" class="edge">
<title>21&#45;&#45;212</title>
<path fill="none" stroke="#000000" d="M331.346,-215.8314C337.5139,-205 345.3224,-191.2876 351.5147,-180.4133"/>
</g>
<!-- 2111 -->
<g id="node13" class="node">
<title>2111</title>
<text text-anchor="middle" x="190" y="-86.3" font-family="Times,serif" font-size="14.00" fill="#000000">[front]</text>
</g>
<!-- 211&#45;&#45;2111 -->
<g id="edge12" class="edge">
<title>211&#45;&#45;2111</title>
<path fill="none" stroke="#000000" d="M252.8033,-143.8314C240.0695,-132.9167 223.9225,-119.0764 211.19,-108.1628"/>
</g>
<!-- 2112 -->
<g id="node15" class="node">
<title>2112</title>
<text text-anchor="middle" x="274" y="-86.3" font-family="Times,serif" font-size="14.00" fill="#000000">{front}</text>
</g>
<!-- 211&#45;&#45;2112 -->
<g id="edge14" class="edge">
<title>211&#45;&#45;2112</title>
<path fill="none" stroke="#000000" d="M274,-143.8314C274,-133 274,-119.2876 274,-108.4133"/>
</g>
<!-- 21111 -->
<g id="node14" class="node">
<title>21111</title>
<text text-anchor="middle" x="190" y="-14.3" font-family="Times,serif" font-size="14.00" fill="#000000">/ø/</text>
</g>
<!-- 2111&#45;&#45;21111 -->
<g id="edge13" class="edge">
<title>2111&#45;&#45;21111</title>
<path fill="none" stroke="#000000" d="M190,-71.8314C190,-61 190,-47.2876 190,-36.4133"/>
</g>
<!-- 21121 -->
<g id="node16" class="node">
<title>21121</title>
<text text-anchor="middle" x="274" y="-14.3" font-family="Times,serif" font-size="14.00" fill="#000000">/o/</text>
</g>
<!-- 2112&#45;&#45;21121 -->
<g id="edge15" class="edge">
<title>2112&#45;&#45;21121</title>
<path fill="none" stroke="#000000" d="M274,-71.8314C274,-61 274,-47.2876 274,-36.4133"/>
</g>
<!-- 2121 -->
<g id="node18" class="node">
<title>2121</title>
<text text-anchor="middle" x="358" y="-86.3" font-family="Times,serif" font-size="14.00" fill="#000000">[front]</text>
</g>
<!-- 212&#45;&#45;2121 -->
<g id="edge17" class="edge">
<title>212&#45;&#45;2121</title>
<path fill="none" stroke="#000000" d="M360.9906,-143.8314C360.3889,-133 359.6271,-119.2876 359.023,-108.4133"/>
</g>
<!-- 2122 -->
<g id="node20" class="node">
<title>2122</title>
<text text-anchor="middle" x="442" y="-86.3" font-family="Times,serif" font-size="14.00" fill="#000000">{front}</text>
</g>
<!-- 212&#45;&#45;2122 -->
<g id="edge19" class="edge">
<title>212&#45;&#45;2122</title>
<path fill="none" stroke="#000000" d="M382.1874,-143.8314C394.3148,-132.9167 409.6928,-119.0764 421.8191,-108.1628"/>
</g>
<!-- 21211 -->
<g id="node19" class="node">
<title>21211</title>
<text text-anchor="middle" x="358" y="-14.3" font-family="Times,serif" font-size="14.00" fill="#000000">/œ/</text>
</g>
<!-- 2121&#45;&#45;21211 -->
<g id="edge18" class="edge">
<title>2121&#45;&#45;21211</title>
<path fill="none" stroke="#000000" d="M358,-71.8314C358,-61 358,-47.2876 358,-36.4133"/>
</g>
<!-- 21221 -->
<g id="node21" class="node">
<title>21221</title>
<text text-anchor="middle" x="442" y="-14.3" font-family="Times,serif" font-size="14.00" fill="#000000">/ɔ/</text>
</g>
<!-- 2122&#45;&#45;21221 -->
<g id="edge20" class="edge">
<title>2122&#45;&#45;21221</title>
<path fill="none" stroke="#000000" d="M442,-71.8314C442,-61 442,-47.2876 442,-36.4133"/>
</g>
<!-- 221 -->
<g id="node23" class="node">
<title>221</title>
<text text-anchor="middle" x="537" y="-158.3" font-family="Times,serif" font-size="14.00" fill="#000000">[tense]</text>
</g>
<!-- 22&#45;&#45;221 -->
<g id="edge22" class="edge">
<title>22&#45;&#45;221</title>
<path fill="none" stroke="#000000" d="M537,-215.8314C537,-205 537,-191.2876 537,-180.4133"/>
</g>
<!-- 222 -->
<g id="node28" class="node">
<title>222</title>
<text text-anchor="middle" x="656" y="-158.3" font-family="Times,serif" font-size="14.00" fill="#000000">{tense}</text>
</g>
<!-- 22&#45;&#45;222 -->
<g id="edge27" class="edge">
<title>22&#45;&#45;222</title>
<path fill="none" stroke="#000000" d="M566.7218,-216.0171C584.896,-205.0209 608.0644,-191.0031 626.2447,-180.0032"/>
</g>
<!-- 2211 -->
<g id="node24" class="node">
<title>2211</title>
<text text-anchor="middle" x="522" y="-86.3" font-family="Times,serif" font-size="14.00" fill="#000000">[low]</text>
</g>
<!-- 221&#45;&#45;2211 -->
<g id="edge23" class="edge">
<title>221&#45;&#45;2211</title>
<path fill="none" stroke="#000000" d="M533.2149,-143.8314C530.9583,-133 528.1016,-119.2876 525.8361,-108.4133"/>
</g>
<!-- 2212 -->
<g id="node26" class="node">
<title>2212</title>
<text text-anchor="middle" x="597" y="-86.3" font-family="Times,serif" font-size="14.00" fill="#000000">{low}</text>
</g>
<!-- 221&#45;&#45;2212 -->
<g id="edge25" class="edge">
<title>221&#45;&#45;2212</title>
<path fill="none" stroke="#000000" d="M552.1405,-143.8314C561.1666,-133 572.5937,-119.2876 581.6556,-108.4133"/>
</g>
<!-- 22111 -->
<g id="node25" class="node">
<title>22111</title>
<text text-anchor="middle" x="522" y="-14.3" font-family="Times,serif" font-size="14.00" fill="#000000">/æ/</text>
</g>
<!-- 2211&#45;&#45;22111 -->
<g id="edge24" class="edge">
<title>2211&#45;&#45;22111</title>
<path fill="none" stroke="#000000" d="M522,-71.8314C522,-61 522,-47.2876 522,-36.4133"/>
</g>
<!-- 22121 -->
<g id="node27" class="node">
<title>22121</title>
<text text-anchor="middle" x="597" y="-14.3" font-family="Times,serif" font-size="14.00" fill="#000000">/e/</text>
</g>
<!-- 2212&#45;&#45;22121 -->
<g id="edge26" class="edge">
<title>2212&#45;&#45;22121</title>
<path fill="none" stroke="#000000" d="M597,-71.8314C597,-61 597,-47.2876 597,-36.4133"/>
</g>
<!-- 2221 -->
<g id="node29" class="node">
<title>2221</title>
<text text-anchor="middle" x="672" y="-86.3" font-family="Times,serif" font-size="14.00" fill="#000000">/ɑ/</text>
</g>
<!-- 222&#45;&#45;2221 -->
<g id="edge28" class="edge">
<title>222&#45;&#45;2221</title>
<path fill="none" stroke="#000000" d="M660.0375,-143.8314C662.4444,-133 665.4916,-119.2876 667.9082,-108.4133"/>
</g>
</g>
</svg>
